<svg xmlns="http://www.w3.org/2000/svg" width="984.893" height="97.033" viewBox="0 0 984.893 97.033">
  <g id="Grupo_2594" data-name="Grupo 2594" transform="translate(-515.107 -4676.967)">
    <text id="_54_9_011_15489657" data-name="+54 9 011 15489657" transform="translate(562 4681)" font-size="20" font-family="Montserrat-SemiBold, Montserrat" font-weight="600" letter-spacing="0.15em"><tspan x="0" y="19">+54 9 011 15489657</tspan></text>
    <text id="contacto_sweetmama.com" data-name="contacto@sweetmama.com" transform="translate(562 4750)" font-size="20" font-family="Montserrat-SemiBold, Montserrat" font-weight="600" letter-spacing="0.15em"><tspan x="0" y="19">contacto@sweetmama.com</tspan></text>
    <path id="phone" d="M-4640.206-3114.156s-1.5-2.935,0-4.88,4.111-4.813,5.883-4.145c2.507.735,4.875,4.5,5.147,5.682.6,2.6-3.811,3.276-3.075,5.616a13.855,13.855,0,0,0,3.343,4.747s4.917,4.77,6.084,3.868,3.343-4.269,5.749-2.665a14.246,14.246,0,0,1,2.307,2.172,7.776,7.776,0,0,1,2.039,2.841c.367,2.073-1.938,4.145-3.61,5.014s-3.388.8-5.95,0c-3.6-1.112-8.895-3.986-15.442-12.7" transform="translate(5157 7801)" fill="none" stroke="#000" stroke-linecap="round" stroke-linejoin="round" stroke-width="1.5"/>
    <path id="Trazado_799" data-name="Trazado 799" d="M-4612.6-3064.938c-2.82,2.482-12.034,10.522-12.034,10.522a2.948,2.948,0,0,1-1.62.736,2.542,2.542,0,0,1-1.561-.589l-12.326-11.017h28v19.654h-28v-11.308" transform="translate(5156 7815)" fill="none" stroke="#000" stroke-linecap="round" stroke-linejoin="round" stroke-width="1.5"/>
  </g>
</svg>
