<svg xmlns="http://www.w3.org/2000/svg" width="144.303" height="96.327" viewBox="0 0 144.303 96.327">
  <g id="Grupo_2688" data-name="Grupo 2688" transform="translate(-401 -150)">
    <g id="Grupo_2594" data-name="Grupo 2594" transform="translate(478.169 195.752)">
      <path id="Trazado_679" data-name="Trazado 679" d="M0-.039C0-.06,0-.057,0-.041Z" transform="translate(0.005 0.054)" fill="#a8a8a8"/>
    </g>
    <g id="Grupo_2595" data-name="Grupo 2595" transform="translate(478.987 196.297)">
      <path id="Trazado_680" data-name="Trazado 680" d="M0-.039C0-.06,0-.057,0-.041Z" transform="translate(0.005 0.054)" fill="#a8a8a8"/>
    </g>
    <g id="Grupo_2596" data-name="Grupo 2596" transform="translate(473.753 239.813)">
      <path id="Trazado_681" data-name="Trazado 681" d="M-1.166-1.213l1.043-.153A1.614,1.614,0,0,1,1-1.2c.007,0,.012.011.019.016a1.023,1.023,0,0,0-.292-.288A1.614,1.614,0,0,0-.4-1.639l-1.043.153-.165,3.2.289-.043Z" transform="translate(1.604 1.668)" fill="#60ae9f"/>
    </g>
    <g id="Grupo_2597" data-name="Grupo 2597" transform="translate(473.146 239.762)">
      <path id="Trazado_682" data-name="Trazado 682" d="M-12.132-3.131a1.852,1.852,0,0,0-.408-.952,1.614,1.614,0,0,0-.236-.223,1.871,1.871,0,0,1,.371.9,2.746,2.746,0,0,1-.147,1.451A2.423,2.423,0,0,1-13.41-.875a3.2,3.2,0,0,1-1.428.548l-1.829.269-.016.315,2.118-.312A3.2,3.2,0,0,0-13.137-.6a2.423,2.423,0,0,0,.857-1.079,2.746,2.746,0,0,0,.147-1.451" transform="translate(16.683 4.306)" fill="#60ae9f"/>
    </g>
    <g id="Grupo_2598" data-name="Grupo 2598" transform="translate(479.628 238.581)">
      <path id="Trazado_683" data-name="Trazado 683" d="M-2.115-.113l-.224,4.352-.553.082-.016.315.842-.124.24-4.667Z" transform="translate(2.908 0.155)" fill="#60ae9f"/>
    </g>
    <g id="Grupo_2599" data-name="Grupo 2599" transform="translate(483.197 238.12)">
      <path id="Trazado_684" data-name="Trazado 684" d="M-9.312,0l-.5.552a1.33,1.33,0,0,0-.582-.311,1.953,1.953,0,0,0-.744-.016,1.989,1.989,0,0,0-.976.4,1.8,1.8,0,0,0-.574.8,2.044,2.044,0,0,0-.1,1.02,1.179,1.179,0,0,0,.5.848,1.3,1.3,0,0,1-.224-.575,2.044,2.044,0,0,1,.1-1.02,1.8,1.8,0,0,1,.574-.8,1.989,1.989,0,0,1,.976-.4,1.953,1.953,0,0,1,.744.016,1.33,1.33,0,0,1,.582.311L-9,.231A1.722,1.722,0,0,0-9.312,0" transform="translate(12.805)" fill="#60ae9f"/>
    </g>
    <g id="Grupo_2600" data-name="Grupo 2600" transform="translate(483.046 239.94)">
      <path id="Trazado_685" data-name="Trazado 685" d="M-9.148-4.287a2.641,2.641,0,0,1-.72.526,2.9,2.9,0,0,1-.888.279,2.668,2.668,0,0,1-1.2-.071,1.9,1.9,0,0,1-.621-.331c.01.012.017.025.026.036a1.819,1.819,0,0,0,.867.568,2.668,2.668,0,0,0,1.2.071A2.9,2.9,0,0,0-9.6-3.488a2.641,2.641,0,0,0,.72-.526l.1-1.881-.29.043Z" transform="translate(12.579 5.895)" fill="#60ae9f"/>
    </g>
    <g id="Grupo_2601" data-name="Grupo 2601" transform="translate(488.97 237.208)">
      <path id="Trazado_686" data-name="Trazado 686" d="M-2.116-.113l-.224,4.352-.554.081-.016.315.843-.124.24-4.667Z" transform="translate(2.909 0.155)" fill="#60ae9f"/>
    </g>
    <g id="Grupo_2602" data-name="Grupo 2602" transform="translate(491.789 237.187)">
      <path id="Trazado_687" data-name="Trazado 687" d="M-3.278,0-4.492.178l-.016.315L-3.295.315Z" transform="translate(4.508)" fill="#60ae9f"/>
    </g>
    <g id="Grupo_2603" data-name="Grupo 2603" transform="translate(493.089 236.381)">
      <path id="Trazado_688" data-name="Trazado 688" d="M-6.113-.114-6.138.3l-1.5.221-.2,3.933-.553.081-.016.315.842-.123L-7.368.8l1.5-.221.044-.734Z" transform="translate(8.406 0.157)" fill="#60ae9f"/>
    </g>
    <g id="Grupo_2604" data-name="Grupo 2604" transform="translate(497.777 236.465)">
      <path id="Trazado_689" data-name="Trazado 689" d="M0-5.808.42-5.87l.722-1.644L.957-7.986Z" transform="translate(0 7.986)" fill="#60ae9f"/>
    </g>
    <g id="Grupo_2605" data-name="Grupo 2605" transform="translate(499.297 235.826)">
      <path id="Trazado_690" data-name="Trazado 690" d="M-.4,0-.556.022,1.116,4.1l-.677.1.115.3.835-.123Z" transform="translate(0.556)" fill="#60ae9f"/>
    </g>
    <g id="Grupo_2606" data-name="Grupo 2606" transform="translate(496.332 239.03)">
      <path id="Trazado_691" data-name="Trazado 691" d="M-9.085,0l-2.28.335-.5,1.146-.474.07-.154.335.9-.132.5-1.146L-8.97.3Z" transform="translate(12.492)" fill="#60ae9f"/>
    </g>
    <g id="Grupo_2607" data-name="Grupo 2607" transform="translate(503.561 235.152)">
      <path id="Trazado_692" data-name="Trazado 692" d="M0-9.76.289-9.8l.186-3.618-.289.042Z" transform="translate(0 13.421)" fill="#60ae9f"/>
    </g>
    <g id="Grupo_2608" data-name="Grupo 2608" transform="translate(502.953 238.737)">
      <path id="Trazado_693" data-name="Trazado 693" d="M-7.9-.113-7.917.3l-2.924.43-.016.315L-7.644.577l.038-.733Z" transform="translate(10.857 0.156)" fill="#60ae9f"/>
    </g>
    <g id="Grupo_2609" data-name="Grupo 2609" transform="translate(510.892 236.055)">
      <path id="Trazado_694" data-name="Trazado 694" d="M-8.033,0l-2.345.345-.1,1.98-.553.081-.016.315L-10.2,2.6l.1-1.98,2.056-.3Z" transform="translate(11.046)" fill="#60ae9f"/>
    </g>
    <g id="Grupo_2610" data-name="Grupo 2610" transform="translate(511.605 233.984)">
      <path id="Trazado_695" data-name="Trazado 695" d="M0-4.374l.289-.043.08-1.6L.08-5.972Z" transform="translate(0 6.015)" fill="#60ae9f"/>
    </g>
    <g id="Grupo_2611" data-name="Grupo 2611" transform="translate(514.078 233.518)">
      <path id="Trazado_696" data-name="Trazado 696" d="M-2.1-.113l-.224,4.352-.547.08-.016.315.836-.123.241-4.667Z" transform="translate(2.885 0.156)" fill="#60ae9f"/>
    </g>
    <g id="Grupo_2612" data-name="Grupo 2612" transform="translate(517.644 233.267)">
      <path id="Trazado_697" data-name="Trazado 697" d="M-1.39-8.24l.008,0a1.316,1.316,0,0,1-.232-.588,2.119,2.119,0,0,1,.084-1,1.774,1.774,0,0,1,.547-.8,1.835,1.835,0,0,1,.936-.406,1.477,1.477,0,0,1,1.079.186,1.111,1.111,0,0,0-.269-.271,1.475,1.475,0,0,0-1.083-.188,1.835,1.835,0,0,0-.936.406,1.774,1.774,0,0,0-.547.8,2.119,2.119,0,0,0-.084,1,1.2,1.2,0,0,0,.5.857" transform="translate(1.912 11.331)" fill="#60ae9f"/>
    </g>
    <g id="Grupo_2613" data-name="Grupo 2613" transform="translate(517.493 233.207)">
      <path id="Trazado_698" data-name="Trazado 698" d="M-11.836-3.269a1.978,1.978,0,0,0-.408-.976,1.687,1.687,0,0,0-.257-.25,1.987,1.987,0,0,1,.392.953A2.835,2.835,0,0,1-12.252-2.1a2.55,2.55,0,0,1-.837,1.125,2.92,2.92,0,0,1-1.4.573,2.618,2.618,0,0,1-1.2-.072A1.842,1.842,0,0,1-16.276-.8c.005.007.01.015.015.022a1.769,1.769,0,0,0,.848.57,2.618,2.618,0,0,0,1.2.072,2.92,2.92,0,0,0,1.4-.573,2.55,2.55,0,0,0,.837-1.125,2.835,2.835,0,0,0,.143-1.437" transform="translate(16.276 4.495)" fill="#60ae9f"/>
    </g>
    <g id="Grupo_2614" data-name="Grupo 2614" transform="translate(524.498 232.083)">
      <path id="Trazado_699" data-name="Trazado 699" d="M-1.1,0l-.289.043-.121,2.305a2.587,2.587,0,0,0,.014.408.875.875,0,0,0,.36.645c.012.008.027.013.04.02a1.121,1.121,0,0,1-.126-.392,2.587,2.587,0,0,1-.014-.408Z" transform="translate(1.51)" fill="#60ae9f"/>
    </g>
    <g id="Grupo_2615" data-name="Grupo 2615" transform="translate(524.252 231.624)">
      <path id="Trazado_700" data-name="Trazado 700" d="M-9.307-.113l-.12,2.358a2.668,2.668,0,0,1-.544,1.612,2.161,2.161,0,0,1-1.4.719,1.914,1.914,0,0,1-1.36-.224c-.024-.016-.042-.037-.064-.053a1.33,1.33,0,0,0,.337.326,1.914,1.914,0,0,0,1.359.224A2.161,2.161,0,0,0-9.7,4.13a2.668,2.668,0,0,0,.544-1.612l.136-2.673Z" transform="translate(12.798 0.155)" fill="#60ae9f"/>
    </g>
    <g id="Grupo_2616" data-name="Grupo 2616" transform="translate(530.17 233.195)">
      <path id="Trazado_701" data-name="Trazado 701" d="M0,0A.813.813,0,0,0,.13.16,1.249,1.249,0,0,0,.649.451,6.109,6.109,0,0,0,1.4.6q.331.044.519.089a1.028,1.028,0,0,1,.19.066.369.369,0,0,0-.138-.2A.946.946,0,0,0,1.645.412Q1.457.367,1.126.323A6.109,6.109,0,0,1,.376.178,1.223,1.223,0,0,1,0,0" fill="#60ae9f"/>
    </g>
    <g id="Grupo_2617" data-name="Grupo 2617" transform="translate(529.771 233.384)">
      <path id="Trazado_702" data-name="Trazado 702" d="M-9.648-1.727a.893.893,0,0,0-.278-.561,1.229,1.229,0,0,0-.124-.086A1.018,1.018,0,0,1-9.921-2a1.267,1.267,0,0,1-.135.814,1.611,1.611,0,0,1-.631.616,2.842,2.842,0,0,1-1.019.336,3.4,3.4,0,0,1-1.026,0,2.687,2.687,0,0,1-.49-.122l-.045.123a2.133,2.133,0,0,0,.808.272,3.4,3.4,0,0,0,1.026,0A2.842,2.842,0,0,0-10.414-.3a1.611,1.611,0,0,0,.631-.616,1.267,1.267,0,0,0,.135-.814" transform="translate(13.267 2.375)" fill="#60ae9f"/>
    </g>
    <g id="Grupo_2618" data-name="Grupo 2618" transform="translate(530.558 231.056)">
      <path id="Trazado_703" data-name="Trazado 703" d="M-7.436-.3a2.042,2.042,0,0,0-.325-.111l-.18.554A2.046,2.046,0,0,0-8.55-.029a2.431,2.431,0,0,0-.674.007,1.519,1.519,0,0,0-.772.3.563.563,0,0,0-.223.533.388.388,0,0,0,.166.273.838.838,0,0,0,.133.074.409.409,0,0,1-.026-.075A.563.563,0,0,1-9.724.552a1.519,1.519,0,0,1,.772-.3A2.431,2.431,0,0,1-8.277.243a2.046,2.046,0,0,1,.608.175Z" transform="translate(10.226 0.408)" fill="#60ae9f"/>
    </g>
    <g id="Grupo_2619" data-name="Grupo 2619" transform="translate(535.918 232.012)">
      <path id="Trazado_704" data-name="Trazado 704" d="M0-5.467.288-5.51l.047-.971,2.2-.324.034-.713-.288.043-.019.4-2.2.324Z" transform="translate(0 7.518)" fill="#60ae9f"/>
    </g>
    <g id="Grupo_2620" data-name="Grupo 2620" transform="translate(535.316 233.958)">
      <path id="Trazado_705" data-name="Trazado 705" d="M-8.34-1.21l-3.112.457-.016.315,3.4-.5.038-.727-.289.043Z" transform="translate(11.468 1.664)" fill="#60ae9f"/>
    </g>
    <g id="Grupo_2621" data-name="Grupo 2621" transform="translate(536.021 230.031)">
      <path id="Trazado_706" data-name="Trazado 706" d="M-6.814-.113-6.836.3-9.31.662l-.06,1.213.288-.042.044-.9L-6.563.571l.039-.727Z" transform="translate(9.37 0.156)" fill="#60ae9f"/>
    </g>
    <g id="Grupo_2622" data-name="Grupo 2622" transform="translate(468.731 231.495)">
      <path id="Trazado_707" data-name="Trazado 707" d="M-28.331,0a5.821,5.821,0,0,1-1.395,1.193,7.689,7.689,0,0,1-2.509,1.048A7.3,7.3,0,0,1-38.958.517l.015.018a7.345,7.345,0,0,0,7.254,2.252A7.689,7.689,0,0,0-29.18,1.739,5.175,5.175,0,0,0-27.856.621,1.425,1.425,0,0,1-28.331,0" transform="translate(38.958)" fill="#60ae9f"/>
    </g>
    <g id="Grupo_2623" data-name="Grupo 2623" transform="translate(455.627 231.036)">
      <path id="Trazado_708" data-name="Trazado 708" d="M-29.464,0c-.128.3-.269.625-.435.977a12.951,12.951,0,0,1-1.78,2.714,6.783,6.783,0,0,1-3.05,2.331,6.114,6.114,0,0,1-3.022.257A5.645,5.645,0,0,1-40.32,5.116c-.068-.054-.131-.11-.2-.166a6.8,6.8,0,0,0,.752.7,5.642,5.642,0,0,0,2.569,1.163,6.116,6.116,0,0,0,3.022-.257,6.784,6.784,0,0,0,3.05-2.331,12.951,12.951,0,0,0,1.78-2.714c.166-.352.248-.535.376-.839a2.14,2.14,0,0,1-.5-.673" transform="translate(40.516)" fill="#60ae9f"/>
    </g>
    <g id="Grupo_2624" data-name="Grupo 2624" transform="translate(471.911 214.963)">
      <path id="Trazado_709" data-name="Trazado 709" d="M-4.453-6.88a4.9,4.9,0,0,0-1.67-2.581A4.736,4.736,0,0,1-5.009-7.415a1.392,1.392,0,0,1,0,.775.668.668,0,0,1-.338.39.808.808,0,0,1-.366.079c.068.123.136.248.2.382.016.074.1.121.257.145a.791.791,0,0,0,.464-.072.667.667,0,0,0,.339-.39,1.4,1.4,0,0,0,0-.775" transform="translate(6.123 9.461)" fill="#60ae9f"/>
    </g>
    <g id="Grupo_2625" data-name="Grupo 2625" transform="translate(457.852 215.79)">
      <path id="Trazado_710" data-name="Trazado 710" d="M-31.44-.239a4.45,4.45,0,0,0-2.879.4,10.284,10.284,0,0,0-2.855,2.058,15.845,15.845,0,0,0-2.25,2.759A23.708,23.708,0,0,0-41.9,9.68a20.5,20.5,0,0,0-1.185,4.279,9.772,9.772,0,0,0-.019,3.278,2.284,2.284,0,0,0,.981,1.682,3.265,3.265,0,0,1-.425-1.147,9.772,9.772,0,0,1,.019-3.278,20.488,20.488,0,0,1,1.185-4.279,23.694,23.694,0,0,1,2.476-4.7,15.82,15.82,0,0,1,2.25-2.759A10.276,10.276,0,0,1-33.762.693a4.449,4.449,0,0,1,2.878-.4,2.513,2.513,0,0,1,1,.469,2.8,2.8,0,0,0-1.553-1" transform="translate(43.233 0.329)" fill="#60ae9f"/>
    </g>
    <g id="Grupo_2626" data-name="Grupo 2626" transform="translate(472.875 220.308)">
      <path id="Trazado_711" data-name="Trazado 711" d="M-2.024-1.416q-.241.972-.516,2.553A16.165,16.165,0,0,0-2.779,4.32a7.961,7.961,0,0,0,.352,2.222,8.428,8.428,0,0,1-.167-1.509A16.1,16.1,0,0,1-2.355,1.85Q-2.079.269-1.839-.7a1.816,1.816,0,0,0-.142-1.244,2.325,2.325,0,0,1-.043.531" transform="translate(2.783 1.947)" fill="#60ae9f"/>
    </g>
    <g id="Grupo_2627" data-name="Grupo 2627" transform="translate(513.774 222.358)">
      <path id="Trazado_712" data-name="Trazado 712" d="M-29.726,0c-.134.3-.282.619-.455.968a12.969,12.969,0,0,1-1.835,2.678,6.786,6.786,0,0,1-3.1,2.268,6.115,6.115,0,0,1-3.027.2,5.643,5.643,0,0,1-2.545-1.215c-.067-.056-.129-.113-.192-.169a6.773,6.773,0,0,0,.738.715,5.643,5.643,0,0,0,2.545,1.215,6.115,6.115,0,0,0,3.027-.2,6.786,6.786,0,0,0,3.1-2.268,12.969,12.969,0,0,0,1.835-2.678c.173-.349.259-.53.393-.831A2.14,2.14,0,0,1-29.726,0" transform="translate(40.876)" fill="#60ae9f"/>
    </g>
    <g id="Grupo_2628" data-name="Grupo 2628" transform="translate(530.481 206.395)">
      <path id="Trazado_713" data-name="Trazado 713" d="M-4.312-6.969A4.9,4.9,0,0,0-5.93-9.583,4.739,4.739,0,0,1-4.858-7.515a1.4,1.4,0,0,1-.016.775.668.668,0,0,1-.346.383.819.819,0,0,1-.367.073c.066.124.131.25.193.386.015.074.1.124.254.15a.8.8,0,0,0,.466-.063.668.668,0,0,0,.346-.383,1.4,1.4,0,0,0,.016-.775" transform="translate(5.93 9.583)" fill="#60ae9f"/>
    </g>
    <g id="Grupo_2629" data-name="Grupo 2629" transform="translate(516.079 207.157)">
      <path id="Trazado_714" data-name="Trazado 714" d="M-32.307-.288a4.449,4.449,0,0,0-2.886.339,10.283,10.283,0,0,0-2.9,2,15.843,15.843,0,0,0-2.306,2.713,23.708,23.708,0,0,0-2.571,4.653,20.5,20.5,0,0,0-1.271,4.254,9.77,9.77,0,0,0-.086,3.277,2.285,2.285,0,0,0,.947,1.7,3.272,3.272,0,0,1-.4-1.156,9.769,9.769,0,0,1,.086-3.277A20.5,20.5,0,0,1-42.42,9.963,23.708,23.708,0,0,1-39.849,5.31,15.843,15.843,0,0,1-37.543,2.6a10.283,10.283,0,0,1,2.9-2A4.449,4.449,0,0,1-31.761.258a2.52,2.52,0,0,1,.987.489A2.8,2.8,0,0,0-32.307-.288" transform="translate(44.424 0.396)" fill="#60ae9f"/>
    </g>
    <g id="Grupo_2630" data-name="Grupo 2630" transform="translate(531.215 211.774)">
      <path id="Trazado_715" data-name="Trazado 715" d="M-2.321-1.413q-.261.967-.568,2.543a16.148,16.148,0,0,0-.3,3.177,7.957,7.957,0,0,0,.307,2.228,8.423,8.423,0,0,1-.136-1.512,16.148,16.148,0,0,1,.3-3.177Q-2.41.271-2.15-.7a1.817,1.817,0,0,0-.117-1.246,2.334,2.334,0,0,1-.053.53" transform="translate(3.191 1.943)" fill="#60ae9f"/>
    </g>
    <g id="Grupo_2631" data-name="Grupo 2631" transform="translate(486.427 212.404)">
      <path id="Trazado_716" data-name="Trazado 716" d="M-.774-4.134S-.85-3.7-.85-3.7c.17-.2.282-.313.484-.572.043-.055.088-.109.132-.164a1.932,1.932,0,0,0-.829-1.247,2.112,2.112,0,0,1,.29,1.55" transform="translate(1.064 5.684)" fill="#60ae9f"/>
    </g>
    <g id="Grupo_2632" data-name="Grupo 2632" transform="translate(504.026 207.335)">
      <path id="Trazado_717" data-name="Trazado 717" d="M-5.069-30.381C-5.8-27.88-6.8-25.422-6.96-22.793a3.127,3.127,0,0,0,1.078,2.865,3.633,3.633,0,0,1-.533-2.319c.164-2.629,1.163-5.087,1.891-7.588,1.388-4.771,2.688-10.085.257-11.941,1.665,2.211.467,7.032-.8,11.4" transform="translate(6.971 41.777)" fill="#60ae9f"/>
    </g>
    <g id="Grupo_2633" data-name="Grupo 2633" transform="translate(494.974 211.331)">
      <path id="Trazado_718" data-name="Trazado 718" d="M-.915-1.591A1.833,1.833,0,0,1-.736-.569c.08-.241.167-.476.257-.709a2.886,2.886,0,0,0-.779-.91,2.63,2.63,0,0,1,.343.6" transform="translate(1.258 2.188)" fill="#60ae9f"/>
    </g>
    <g id="Grupo_2634" data-name="Grupo 2634" transform="translate(503.176 227.372)">
      <path id="Trazado_719" data-name="Trazado 719" d="M-24.414-.035a9.186,9.186,0,0,1-1.5,2.3,6.136,6.136,0,0,1-5.578,2.082,4.611,4.611,0,0,1-2.082-1.008A4.652,4.652,0,0,0-30.943,4.89a6.136,6.136,0,0,0,5.578-2.082,9.186,9.186,0,0,0,1.5-2.3c-.239-.247-.632-.634-.546-.546" transform="translate(33.571 0.048)" fill="#60ae9f"/>
    </g>
    <g id="Grupo_2635" data-name="Grupo 2635" transform="translate(481.412 216.005)">
      <path id="Trazado_720" data-name="Trazado 720" d="M-16.891-7.883c-3.366,5.522-3.419,9.77-3.227,11.578a2.729,2.729,0,0,1-1.011,2.471,2.126,2.126,0,0,1-.884.407,1.6,1.6,0,0,1-1.177-.235c-.013-.008-.025-.017-.036-.026a2.052,2.052,0,0,0,.376.421.914.914,0,0,1,.145.107c.02.014.039.03.06.044a1.6,1.6,0,0,0,1.177.235,2.126,2.126,0,0,0,.884-.407,2.729,2.729,0,0,0,1.011-2.471c-.192-1.808-.139-6.057,3.227-11.578,1.283-2.105,2.074-2.9,2.549-2.953-.262-.969-1.059-.933-3.095,2.407" transform="translate(23.226 10.84)" fill="#60ae9f"/>
    </g>
    <g id="Grupo_2636" data-name="Grupo 2636" transform="translate(492.354 211.468)">
      <path id="Trazado_721" data-name="Trazado 721" d="M-27.1-1.772a.878.878,0,0,0-.454-.508C-29.3-3.1-30.606-.505-31.251.637c-2.191,3.883-4.065,9.509-3.376,13.994a6.635,6.635,0,0,1,.093,2.626,1.606,1.606,0,0,1-2.161,1.116,1.658,1.658,0,0,1-.566-.252,1.926,1.926,0,0,0,1.112.8A1.606,1.606,0,0,0-33.988,17.8a6.635,6.635,0,0,0-.093-2.626C-34.77,10.691-32.9,5.065-30.705,1.182-30.072.06-28.8-2.458-27.1-1.772" transform="translate(37.261 2.436)" fill="#60ae9f"/>
    </g>
    <g id="Grupo_2637" data-name="Grupo 2637" transform="translate(481.242 233.033)">
      <path id="Trazado_722" data-name="Trazado 722" d="M-.388-.284A.9.9,0,0,0-.533-.391c.046.038.1.073.145.107" transform="translate(0.533 0.391)" fill="#a8a8a8"/>
    </g>
    <g id="Grupo_2638" data-name="Grupo 2638" transform="translate(485.15 185.95)">
      <path id="Trazado_723" data-name="Trazado 723" d="M-28.406-.595c.153,2.771-1.828,4.98-3.793,6.8a14.857,14.857,0,0,1-3.593,2.53c-.6.312-.967.558-1.586.827-.178.077-1.146.549-1.67.777a5.176,5.176,0,0,0,0,.786c.449-.182,1.637-.761,1.836-.848.619-.269.987-.516,1.586-.827a14.857,14.857,0,0,0,3.593-2.53c1.966-1.82,3.946-4.029,3.793-6.8a4.075,4.075,0,0,0-.2-.939c.011.074.024.148.03.223" transform="translate(39.06 0.818)" fill="#60ae9f"/>
    </g>
    <g id="Grupo_2639" data-name="Grupo 2639" transform="translate(478.769 197.798)">
      <path id="Trazado_724" data-name="Trazado 724" d="M-52.755,0a21.076,21.076,0,0,1-5.182,4.87,13.2,13.2,0,0,1-7.987,2.157A9.328,9.328,0,0,1-68.592,6.5,8.494,8.494,0,0,1-71.38,4.484a6.6,6.6,0,0,1-.955-1.6c-.125-.312-.118-.062-.208-.384a4.2,4.2,0,0,0,.378,1.1,6.6,6.6,0,0,0,2.289,2.846,7.824,7.824,0,0,0,4.122,1.294,13.2,13.2,0,0,0,7.987-2.157A21.25,21.25,0,0,0-52.436.525,5.715,5.715,0,0,1-52.755,0" transform="translate(72.543)" fill="#60ae9f"/>
    </g>
    <g id="Grupo_2640" data-name="Grupo 2640" transform="translate(484.454 185.433)">
      <path id="Trazado_725" data-name="Trazado 725" d="M-22.576-.017a4.737,4.737,0,0,0-2.05.839A13.533,13.533,0,0,0-27,2.616a18.569,18.569,0,0,0-2.143,2.37,9.6,9.6,0,0,0-1.9,3.9l.429-.2A9.446,9.446,0,0,1-28.974,5.7a18.569,18.569,0,0,1,2.143-2.37,13.533,13.533,0,0,1,2.375-1.794A4.737,4.737,0,0,1-22.406.7a.609.609,0,0,1,.63.272c-.018-.7-.284-1.046-.8-.988" transform="translate(31.044 0.023)" fill="#60ae9f"/>
    </g>
    <g id="Grupo_2641" data-name="Grupo 2641" transform="translate(504.423 194.546)">
      <path id="Trazado_726" data-name="Trazado 726" d="M-.076-.187V-.193C-.085-.212-.094-.234-.1-.257v.023a.343.343,0,0,1,.028.047" transform="translate(0.105 0.257)" fill="#60ae9f"/>
    </g>
    <g id="Grupo_2642" data-name="Grupo 2642" transform="translate(505.646 181.987)">
      <path id="Trazado_727" data-name="Trazado 727" d="M-28.405-.595c.153,2.771-1.828,4.98-3.793,6.8a14.866,14.866,0,0,1-3.593,2.53c-.6.311-.967.558-1.586.827-.177.077-1.146.549-1.67.777a5.131,5.131,0,0,0,.005.786c.449-.182,1.637-.761,1.835-.848.619-.269.987-.516,1.586-.827a14.866,14.866,0,0,0,3.593-2.53c1.966-1.82,3.946-4.029,3.793-6.8a4.075,4.075,0,0,0-.2-.939c.011.074.024.148.03.223" transform="translate(39.06 0.818)" fill="#60ae9f"/>
    </g>
    <g id="Grupo_2643" data-name="Grupo 2643" transform="translate(499.153 193.57)">
      <path id="Trazado_728" data-name="Trazado 728" d="M-54.146,0a23.712,23.712,0,0,1-5.592,5.135,13.2,13.2,0,0,1-7.987,2.157A7.817,7.817,0,0,1-71.847,6l-.055-.042.053.063a1.6,1.6,0,0,0,.33.328c.131.1.241.2.307.265A13.6,13.6,0,0,0-70,7.289c-.366-.136-.69-.272-1.055-.408a2.807,2.807,0,0,1-.873-.669A4.931,4.931,0,0,0-72.5,5.66l-.11-.1c-.175-.142-.263-.224-.222-.268a1.074,1.074,0,0,0-.289-.372l-.062-.169a6.6,6.6,0,0,1-.955-1.6,9.445,9.445,0,0,1-.32-.952,9.4,9.4,0,0,0,.49,1.668,6.6,6.6,0,0,0,2.289,2.846,7.817,7.817,0,0,0,4.122,1.294,13.2,13.2,0,0,0,7.987-2.157,23.691,23.691,0,0,0,5.72-5.3c-.1-.2-.2-.379-.3-.552" transform="translate(74.456)" fill="#60ae9f"/>
    </g>
    <g id="Grupo_2644" data-name="Grupo 2644" transform="translate(504.951 181.498)">
      <path id="Trazado_729" data-name="Trazado 729" d="M-22.576-.017a4.733,4.733,0,0,0-2.05.838A13.533,13.533,0,0,0-27,2.615a18.569,18.569,0,0,0-2.143,2.37,9.6,9.6,0,0,0-1.9,3.9l.429-.2A9.446,9.446,0,0,1-28.974,5.7a18.569,18.569,0,0,1,2.143-2.37,13.533,13.533,0,0,1,2.375-1.794A4.733,4.733,0,0,1-22.406.7a.608.608,0,0,1,.63.271c-.018-.7-.284-1.046-.8-.987" transform="translate(31.044 0.023)" fill="#60ae9f"/>
    </g>
    <g id="Grupo_2645" data-name="Grupo 2645" transform="translate(531.947 154.631)">
      <path id="Trazado_730" data-name="Trazado 730" d="M-6.449-4.074A6.136,6.136,0,0,0-6.711-5.6a6.206,6.206,0,0,1,.092.812A20.721,20.721,0,0,1-6.838-.617l-1.908.238c-.007.056-.012.109-.02.165-.027.2-.064.392-.1.587L-6.667.1a20.721,20.721,0,0,0,.218-4.173" transform="translate(8.868 5.602)" fill="#60ae9f"/>
    </g>
    <g id="Grupo_2646" data-name="Grupo 2646" transform="translate(524.676 156.269)">
      <path id="Trazado_731" data-name="Trazado 731" d="M-19.642-2.221a4.005,4.005,0,0,0-.08-.536c-.091-.268-.25-.359-.431-.255a1.609,1.609,0,0,0-.615.659,10.443,10.443,0,0,0-.661,1.261c-.149.42-.3.84-.484,1.328-.092.23-.178.469-.264.714l-4.594.776q-.132.389-.239.785l5-.845c.085-.245.171-.484.263-.714.185-.488.334-.908.484-1.328A10.443,10.443,0,0,1-20.6-1.637a1.609,1.609,0,0,1,.615-.659.239.239,0,0,1,.34.075" transform="translate(27.01 3.054)" fill="#60ae9f"/>
    </g>
    <g id="Grupo_2647" data-name="Grupo 2647" transform="translate(523.627 163.907)">
      <path id="Trazado_732" data-name="Trazado 732" d="M-22.922-4.54A24.511,24.511,0,0,1-24.364-.991,17.447,17.447,0,0,1-26.4,2.156c-.544.678-3.155,3.661-4.264,4.757-.17.971-.321,1.933-.452,2.892a29.965,29.965,0,0,0-.4,4.88c.012.415.02.919.041,1.463a18.08,18.08,0,0,0,.511,2.958,18.17,18.17,0,0,1-.34-2.242c-.02-.544-.029-1.047-.041-1.463a29.965,29.965,0,0,1,.4-4.88c.131-.959.282-1.921.452-2.892,1.109-1.1,3.72-4.079,4.264-4.757A17.447,17.447,0,0,0-24.193-.275a24.511,24.511,0,0,0,1.441-3.549c.251-.793.5-1.608.685-2.419l-.369.073c-.149.548-.318,1.094-.487,1.63" transform="translate(31.52 6.243)" fill="#60ae9f"/>
    </g>
    <g id="Grupo_2648" data-name="Grupo 2648" transform="translate(525.31 164.886)">
      <path id="Trazado_733" data-name="Trazado 733" d="M-1.984-15.5q-.4,1.21-.744,2.437a7.193,7.193,0,0,0,.55-.572q.176-.576.364-1.149c.7-2.132,1.346-4.389,2.02-6.53l-.413.071c-.587,1.9-1.159,3.869-1.777,5.743" transform="translate(2.728 21.314)" fill="#60ae9f"/>
    </g>
    <g id="Grupo_2649" data-name="Grupo 2649" transform="translate(519.364 189.117)">
      <path id="Trazado_734" data-name="Trazado 734" d="M-57.9-18.438c-.014-.018-.031-.032-.047-.049a.727.727,0,0,1-.135.256,10.625,10.625,0,0,1-3.281,2.549,12.47,12.47,0,0,1-4.055,1.221A12.03,12.03,0,0,1-74.7-17.2a15.328,15.328,0,0,1-4.009-5.382,19.224,19.224,0,0,1-.906-2.774c.04.176.076.352.121.528a19.915,19.915,0,0,0,.956,2.961,15.329,15.329,0,0,0,4.009,5.382,12.03,12.03,0,0,0,9.284,2.738,12.47,12.47,0,0,0,4.055-1.221,10.621,10.621,0,0,0,3.281-2.549.736.736,0,0,0,.011-.923" transform="translate(79.612 25.354)" fill="#60ae9f"/>
    </g>
    <g id="Grupo_2650" data-name="Grupo 2650" transform="translate(483.013 164.813)">
      <path id="Trazado_735" data-name="Trazado 735" d="M-77.182-4.486Q-85.425-3.012-93.651-1.43q-4.17.8-8.334,1.618c-.923.182-1.867.426-2.805.515a1.581,1.581,0,0,1-1.328-.321,1.37,1.37,0,0,0-.012.2c.028.82.868.894,1.511.833.939-.089,1.883-.333,2.805-.515Q-97.65.083-93.481-.714-85.258-2.3-77.011-3.77c2.995-.536,5.993-1.058,8.985-1.608l.232-.79c-3.126.579-6.259,1.123-9.388,1.683" transform="translate(106.132 6.169)" fill="#60ae9f"/>
    </g>
    <g id="Grupo_2651" data-name="Grupo 2651" transform="translate(530.008 160.624)">
      <path id="Trazado_736" data-name="Trazado 736" d="M-40.245,0c-.137.471-.78.92-2.194,1A90.893,90.893,0,0,0-54.912,2.551c-.635.116-.553.849.17.716A90.893,90.893,0,0,1-42.269,1.715C-40.105,1.595-39.745.608-40.245,0" transform="translate(55.34)" fill="#60ae9f"/>
    </g>
    <g id="Grupo_2652" data-name="Grupo 2652" transform="translate(416.003 189.864)">
      <path id="Trazado_737" data-name="Trazado 737" d="M-52.77-17.442A4.886,4.886,0,0,0-54.385-18a13.448,13.448,0,0,0-2.058-.191c-.76-.017-1.541-.012-2.318.035a26.45,26.45,0,0,1-6.516-.322,13.269,13.269,0,0,1-4.311-1.574,6.353,6.353,0,0,1-2.432-2.532,8.126,8.126,0,0,1-.543-1.4,8.147,8.147,0,0,0,.714,2.118,6.353,6.353,0,0,0,2.432,2.532,13.268,13.268,0,0,0,4.311,1.574,26.449,26.449,0,0,0,6.516.322c.777-.047,1.558-.052,2.318-.035a13.449,13.449,0,0,1,2.058.191,4.886,4.886,0,0,1,1.616.556,2.31,2.31,0,0,1,.993,1.079c.022.055.037.111.057.167a3.614,3.614,0,0,0-.227-.883,2.31,2.31,0,0,0-.993-1.079" transform="translate(72.563 23.984)" fill="#60ae9f"/>
    </g>
    <g id="Grupo_2653" data-name="Grupo 2653" transform="translate(421.56 173.359)">
      <path id="Trazado_738" data-name="Trazado 738" d="M-53.885-1.269A5.169,5.169,0,0,0-55.556-1.7a9.921,9.921,0,0,0-1.395-.042A11.327,11.327,0,0,0-60.881-.8,23.116,23.116,0,0,0-64.8,1.291a26.1,26.1,0,0,0-6.561,6.24,18.606,18.606,0,0,0-2.01,3.389A7.366,7.366,0,0,0-74.1,14a4.3,4.3,0,0,0,.223,1.358,4.277,4.277,0,0,1-.052-.642,7.366,7.366,0,0,1,.72-3.082,18.6,18.6,0,0,1,2.01-3.389,26.1,26.1,0,0,1,6.561-6.24A23.117,23.117,0,0,1-60.71-.087a11.327,11.327,0,0,1,3.931-.934,9.921,9.921,0,0,1,1.395.042,5.169,5.169,0,0,1,1.671.426A3.392,3.392,0,0,1-52.362.525a2.461,2.461,0,0,1,.349.657,2.871,2.871,0,0,0-.519-1.373,3.4,3.4,0,0,0-1.352-1.078" transform="translate(74.096 1.746)" fill="#60ae9f"/>
    </g>
    <g id="Grupo_2654" data-name="Grupo 2654" transform="translate(405.006 201.207)">
      <path id="Trazado_739" data-name="Trazado 739" d="M-.632-30.2s0-.007,0-.011c-.8-5.671,6.2-8.757,6.879-9.044a18.794,18.794,0,0,1,4.133-1.029,51.756,51.756,0,0,1,5.414-.454c1.831-.069,3.643-.094,5.48-.058,1.817.038,3.656.095,5.513.109.9.007.306.011,1.2,0,.432-.625.6-.68-.159-.714-.9.012-.317,0-1.215,0-1.857-.014-3.7-.072-5.513-.109-1.837-.036-3.649-.011-5.48.058A51.755,51.755,0,0,0,10.207-41a18.794,18.794,0,0,0-4.133,1.029C5.392-39.687-1.609-36.6-.8-30.93a4.347,4.347,0,0,0,.173.727" transform="translate(0.869 41.532)" fill="#60ae9f"/>
    </g>
    <g id="Grupo_2655" data-name="Grupo 2655" transform="translate(438.148 176.068)">
      <path id="Trazado_740" data-name="Trazado 740" d="M-21.477-.72c-.024-.091-.053-.18-.081-.27a5.989,5.989,0,0,1-.335,3.136,6.743,6.743,0,0,1-.537,1.093A7.887,7.887,0,0,1-29.114,6.81c-.332.2-.568.43-.306.627a.609.609,0,0,0,.349.089A7.886,7.886,0,0,0-22.26,3.955a6.743,6.743,0,0,0,.537-1.093A5.986,5.986,0,0,0-21.477-.72" transform="translate(29.533 0.99)" fill="#60ae9f"/>
    </g>
    <g id="Grupo_2656" data-name="Grupo 2656" transform="translate(401.96 202.331)">
      <path id="Trazado_741" data-name="Trazado 741" d="M-100.811-1.045a16.452,16.452,0,0,1-1.444,3.62q-.154.294-.315.585c-4.055,7.335-11.643,12.223-19.608,14.322-11.459,3.034-15.294-1.749-16.336-4.681l-.109-.373c.022.121.041.24.067.364l.213.725c1.042,2.932,4.877,7.715,16.336,4.681,7.966-2.1,15.553-6.987,19.608-14.322q.161-.291.315-.585a16.452,16.452,0,0,0,1.444-3.62c.215-.866.045-1.582-.17-.716" transform="translate(138.624 1.437)" fill="#60ae9f"/>
    </g>
    <g id="Grupo_2657" data-name="Grupo 2657" transform="translate(464.704 188.53)">
      <path id="Trazado_742" data-name="Trazado 742" d="M-6.533-3.1C-7.042-.756-7.853,1.534-8.4,3.885a15.7,15.7,0,0,0-.279,7.161c.022.091.048.184.076.277A16.252,16.252,0,0,1-8.234,4.6C-7.683,2.25-6.871-.04-6.363-2.387a3.167,3.167,0,0,0,.039-1.665,1.7,1.7,0,0,0-.093-.215A3.159,3.159,0,0,1-6.533-3.1" transform="translate(8.984 4.267)" fill="#60ae9f"/>
    </g>
    <g id="Grupo_2658" data-name="Grupo 2658" transform="translate(475.48 187.088)">
      <path id="Trazado_743" data-name="Trazado 743" d="M-2.761-.449A54.719,54.719,0,0,0-3.775,7.056,3.705,3.705,0,0,0-3.6,8.732a5.615,5.615,0,0,1,0-.96A54.719,54.719,0,0,1-2.591.267a1.638,1.638,0,0,0,.042-.478.567.567,0,0,0-.14-.373C-2.7-.6-2.719-.606-2.734-.618c-.008.056-.016.113-.028.169" transform="translate(3.797 0.618)" fill="#60ae9f"/>
    </g>
    <g id="Grupo_2659" data-name="Grupo 2659" transform="translate(446.66 201.187)">
      <path id="Trazado_744" data-name="Trazado 744" d="M-33.326,0c-.762,2.371-1.577,4.853-3.307,6.652s-4.648,2.729-6.793,1.413a5.891,5.891,0,0,1-2.4-3.595,6.342,6.342,0,0,0,2.57,4.311c2.145,1.316,5.062.386,6.793-1.413a15.688,15.688,0,0,0,3.174-6.239c-.03-.378-.044-.756-.037-1.129" transform="translate(45.826)" fill="#60ae9f"/>
    </g>
    <g id="Grupo_2660" data-name="Grupo 2660" transform="translate(459.53 198.57)">
      <path id="Trazado_745" data-name="Trazado 745" d="M-47.556-2.323a4.335,4.335,0,0,1-3.2-.872,28.556,28.556,0,0,1-2.312,5.431A9.947,9.947,0,0,1-57.25,6.285,5.957,5.957,0,0,1-62.912,6.1a6.13,6.13,0,0,1-2.481-3.645,6.468,6.468,0,0,0,2.652,4.361A5.957,5.957,0,0,0-57.08,7a9.947,9.947,0,0,0,4.186-4.049,28.556,28.556,0,0,0,2.312-5.431,4.335,4.335,0,0,0,3.2.872c-.027-.54-.108-.639-.17-.716" transform="translate(65.393 3.195)" fill="#60ae9f"/>
    </g>
    <g id="Grupo_2661" data-name="Grupo 2661" transform="translate(441.235 197.844)">
      <path id="Trazado_746" data-name="Trazado 746" d="M-14.086,0a27.022,27.022,0,0,1-2.768,1.395,25.6,25.6,0,0,1-2.45.918c-.019.291-.043.562-.066.793a25.693,25.693,0,0,0,2.686-.995A26.971,26.971,0,0,0-14.212.882c.038-.295.08-.589.126-.882" transform="translate(19.369)" fill="#60ae9f"/>
    </g>
    <g id="Grupo_2662" data-name="Grupo 2662" transform="translate(451.553 189.5)">
      <path id="Trazado_747" data-name="Trazado 747" d="M-7.527-1.686C-7.872-.335-8.294,1-8.637,2.353a64.473,64.473,0,0,0-1.538,7.953,12.655,12.655,0,0,0,.049,4.469c.022.092.051.187.084.281a13.683,13.683,0,0,1,.037-4.034A64.473,64.473,0,0,1-8.467,3.069C-8.124,1.714-7.7.381-7.357-.97a2.02,2.02,0,0,0-.1-1.349,2.221,2.221,0,0,1-.068.633" transform="translate(10.35 2.319)" fill="#60ae9f"/>
    </g>
    <g id="Grupo_2663" data-name="Grupo 2663" transform="translate(449.113 216.813)">
      <path id="Trazado_748" data-name="Trazado 748" d="M-3.242-27.839a22.64,22.64,0,0,0-1.2,5.808,9.855,9.855,0,0,0,.351,3.14,9.718,9.718,0,0,1-.181-2.424,22.64,22.64,0,0,1,1.2-5.808C-1.8-31-.669-35.527-1.517-38.281c.491,2.781-.557,6.888-1.724,10.442" transform="translate(4.458 38.281)" fill="#60ae9f"/>
    </g>
    <g id="Grupo_2664" data-name="Grupo 2664" transform="translate(445.205 236.418)">
      <path id="Trazado_749" data-name="Trazado 749" d="M-63.7-20.66c-.362.352-1.468.778-4.3,1.169-6.325.872-14.961-.082-18.6-6.44a10.388,10.388,0,0,1-1-2.478,10.924,10.924,0,0,0,1.167,3.194c3.634,6.358,12.271,7.312,18.6,6.44,5.645-.778,4.442-1.7,4.129-1.885" transform="translate(87.587 28.409)" fill="#60ae9f"/>
    </g>
    <g id="Grupo_2665" data-name="Grupo 2665" transform="translate(422.824 224.612)">
      <path id="Trazado_750" data-name="Trazado 750" d="M-30.565-2.729c-.131-1.4-.9-1.88-3.476,1.987-3.773,5.655-3.933,10.06-3.769,11.94a2.788,2.788,0,0,1-1.153,2.541,2.355,2.355,0,0,1-.966.4,1.783,1.783,0,0,1-1.266-.27,2.159,2.159,0,0,1-.834-1.013,2.241,2.241,0,0,0,1,1.729,1.783,1.783,0,0,0,1.266.27,2.355,2.355,0,0,0,.966-.4,2.788,2.788,0,0,0,1.153-2.541c-.164-1.88,0-6.285,3.769-11.94,2.051-3.073,2.955-3.4,3.305-2.7" transform="translate(42.03 3.753)" fill="#60ae9f"/>
    </g>
    <g id="Grupo_2666" data-name="Grupo 2666" transform="translate(434.151 218.706)">
      <path id="Trazado_751" data-name="Trazado 751" d="M-32.456-2.268a1.053,1.053,0,0,1,.49.466,1.237,1.237,0,0,0-.66-1.182c-1.147-.543-2.046.731-2.046.731a15.5,15.5,0,0,0-2,3.207,32.7,32.7,0,0,0-1.79,3.659,24.089,24.089,0,0,0-1.85,11.674,8.222,8.222,0,0,1,.081,1.771A1.819,1.819,0,0,1-42.7,19.721c-.962-.235-1.563-1.211-1.928-2.52.336,1.66.968,2.96,2.1,3.236a1.819,1.819,0,0,0,2.466-1.663A8.222,8.222,0,0,0-40.146,17,24.089,24.089,0,0,1-38.3,5.329a32.7,32.7,0,0,1,1.79-3.659,15.5,15.5,0,0,1,2-3.207s.9-1.274,2.046-.731" transform="translate(44.63 3.119)" fill="#60ae9f"/>
    </g>
    <g id="Grupo_2667" data-name="Grupo 2667" transform="translate(527.864 213.437)">
      <path id="Trazado_752" data-name="Trazado 752" d="M-38.336,0q-.555,1.987-1.127,3.58c-.241.7-.485,1.34-.731,1.93a16.066,16.066,0,0,1-1.948,3.529,8.253,8.253,0,0,1-2.23,2.1,7.689,7.689,0,0,1-2.534.985,6.773,6.773,0,0,1-2.474.144,7.386,7.386,0,0,1-2.361-.708,8.4,8.4,0,0,1-.935-.545l-.038-.028a5.1,5.1,0,0,0,1.28.9,7.386,7.386,0,0,0,2.361.708,6.779,6.779,0,0,0,2.474-.144,7.688,7.688,0,0,0,2.534-.985,8.252,8.252,0,0,0,2.23-2.1A16.053,16.053,0,0,0-39.887,5.84,45.025,45.025,0,0,0-38.134.6.678.678,0,0,0-38.3.037c-.011-.013-.023-.024-.034-.037" transform="translate(52.715)" fill="#60ae9f"/>
    </g>
    <g id="Grupo_2668" data-name="Grupo 2668" transform="translate(477.758 181.512)">
      <path id="Trazado_753" data-name="Trazado 753" d="M-18.452-51.715l-.108-.06.106,0,.046.1.066.061c-.042,0-.065-.04-.11-.1m-.421-.473c-.064,0-.152-.079-.222-.268a.882.882,0,0,1-.092-.209.6.6,0,0,1-.028-.169.749.749,0,0,1-.177-.206,1.083,1.083,0,0,1-.052-.274.338.338,0,0,1-.114-.208c0-.085,0-.127-.048-.168-.075-.294-.122-.441-.124-.484-.047-.147-.073-.273-.1-.357a1.222,1.222,0,0,1-.031-.254l0-.106c.069.146.115.23.138.292a.883.883,0,0,1,.031.253.618.618,0,0,1,.137.271c-.041.044-.038.129.008.233a.6.6,0,0,0,.094.251.343.343,0,0,1,.091.188.216.216,0,0,1,.112.166.675.675,0,0,0,.052.274.774.774,0,0,1,.092.188,1.359,1.359,0,0,0,.136.25c0,.085,0,.127.049.168a.4.4,0,0,1,.048.168c.154.143.221.225.222.268a.615.615,0,0,1-.222-.268m-1.057-2.827-.008-.212a.356.356,0,0,1-.031-.254.485.485,0,0,0-.032-.3.585.585,0,0,0-.014-.382,1.764,1.764,0,0,1-.052-.274c.045.083.07.167.116.272a.584.584,0,0,1,.014.382l.015.424a.347.347,0,0,1,.054.316h0a.589.589,0,0,0-.014.192.976.976,0,0,1-.048-.168m-.81-11.242c-.018.086-.142.175-.35.289a1.229,1.229,0,0,0-.2.325c0,.043-.081.109-.268.222.11.1.112.166.008.212s-.123.132-.054.278A8.5,8.5,0,0,0-22.638-63.6a9.385,9.385,0,0,0-.849,1.75l-.178-.228a2.556,2.556,0,0,1,.151-.536A7.731,7.731,0,0,1-22.2-65.079a.338.338,0,0,0,.1-.216c0-.085.058-.172.2-.283l.534-.507c.138-.281.26-.434.324-.436a2.826,2.826,0,0,0,.534-.508,4.845,4.845,0,0,1,.969-.778,3.663,3.663,0,0,0,.846-.667c.353-.225.664-.428.913-.585.248-.179.434-.313.579-.424q.531-.274,1.185-.679a.746.746,0,0,1,.21-.05l-.205.177a3.145,3.145,0,0,1-.433.355,1.416,1.416,0,0,1-.544.211,2.208,2.208,0,0,1-.743.579,1.772,1.772,0,0,0-.744.579,14.939,14.939,0,0,0-1.752,1.443c.005.148-.118.28-.366.438a.285.285,0,0,0-.142.175m-1.049,16.785a2.81,2.81,0,0,1-.873-.669,4.927,4.927,0,0,0-.572-.552l-.11-.1c-.175-.142-.263-.224-.222-.268a1.077,1.077,0,0,0-.289-.372l-.236-.649a1.3,1.3,0,0,0-.338-.54,5.149,5.149,0,0,0-.151-.653,1.629,1.629,0,0,0-.139-.313,7.439,7.439,0,0,0-.178-.8l0-.106.11.1a1.178,1.178,0,0,0,.14.356.258.258,0,0,1-.01.3,1.259,1.259,0,0,1,.209.5,1.067,1.067,0,0,0,.251.5c.142.4.326.794.51,1.191a.366.366,0,0,1,.285.266c0,.064.025.105.089.1.043,0,.087.06.135.207.11.1.176.163.2.163s.045.062.091.167c.065.04.109.059.131.1.022.02.089.1.177.206a1.594,1.594,0,0,0,.33.328c.131.1.241.2.307.265a13.528,13.528,0,0,0,1.213.678c-.367-.136-.69-.272-1.055-.408m6.44-16.788-.2.325h0a.507.507,0,0,1-.395.226.824.824,0,0,0,.349-.31,1.143,1.143,0,0,1,.246-.242m-1.206,1.274-.167.07.1-.11a.306.306,0,0,1,.2-.22l.061-.066a.436.436,0,0,1-.2.326m-.323.457a1.192,1.192,0,0,0-.27.158h0c-.035.214-.094.342-.219.369a.31.31,0,0,0-.187.134,2.827,2.827,0,0,0-.244.306.344.344,0,0,0-.078.194.406.406,0,0,1-.1.28l-.2.22a.64.64,0,0,1-.1.216,1.685,1.685,0,0,0-.159.282,1.556,1.556,0,0,1-.1.195c-.041.044-.06.088-.1.131.009.254-.029.383-.091.428a1.276,1.276,0,0,1,.091-.428c-.086-.04-.048-.168.092-.385a.664.664,0,0,1,.142-.2,1.162,1.162,0,0,0,.141-.2.391.391,0,0,1,.075-.279,2.8,2.8,0,0,1,.244-.285.281.281,0,0,1,.056-.214l.2-.22c.2-.283.324-.436.366-.438a2.346,2.346,0,0,1,.242-.349.893.893,0,0,1,.29-.2.724.724,0,0,1-.1.279m11.155,6.672a16.614,16.614,0,0,1-1.635,1.876,23.6,23.6,0,0,1-3.522,2.993,12.363,12.363,0,0,1-3.65,1.788,4.046,4.046,0,0,1-3.127-.205,2.928,2.928,0,0,1-1.055-.981,4.956,4.956,0,0,1-.6-1.4,10.164,10.164,0,0,1-.287-2.594,10.663,10.663,0,0,1,2.278-6.349,18.545,18.545,0,0,1,2.143-2.37A13.528,13.528,0,0,1-12.8-66.893a4.736,4.736,0,0,1,2.05-.838c.55-.062.819.331.8,1.117.072,1.98-1.6,3.691-2.939,4.936a18.175,18.175,0,0,1-5.523,3.537c-.232.087-.328,1.715-.269,2.148.449-.182,1.637-.761,1.836-.847.618-.269.987-.516,1.586-.827a14.854,14.854,0,0,0,3.593-2.53c1.966-1.82,3.946-4.029,3.794-6.8a4.087,4.087,0,0,0-1.284-2.628,5.494,5.494,0,0,0-2.873-1.382,8.314,8.314,0,0,0-3.853.288,11.4,11.4,0,0,0-4.055,2.609,13.56,13.56,0,0,0-2.846,3.5,17.139,17.139,0,0,0-1.889,4.1c-.124.4-.229.8-.32,1.2a15.4,15.4,0,0,0-.376,3.008c-.008.228,0,.456,0,.683a9.418,9.418,0,0,0,.664,3.134,6.6,6.6,0,0,0,2.289,2.846,7.821,7.821,0,0,0,4.122,1.295A13.2,13.2,0,0,0-10.3-50.5a21.243,21.243,0,0,0,5.331-5.061,3.818,3.818,0,0,1-.751-2.292" transform="translate(25.373 71.113)" fill="#fff"/>
    </g>
    <g id="Grupo_2669" data-name="Grupo 2669" transform="translate(498.255 177.549)">
      <path id="Trazado_754" data-name="Trazado 754" d="M-18.451-51.715l-.108-.06.106,0,.046.1.066.061c-.043,0-.065-.04-.11-.1m-.421-.473c-.064,0-.151-.079-.222-.268a.882.882,0,0,1-.092-.209.6.6,0,0,1-.028-.169.741.741,0,0,1-.177-.206,1.08,1.08,0,0,1-.052-.274.338.338,0,0,1-.114-.208c0-.085,0-.127-.048-.168-.074-.294-.122-.441-.124-.484-.047-.147-.073-.273-.1-.357a1.219,1.219,0,0,1-.031-.254l0-.106c.069.146.115.23.138.292a.864.864,0,0,1,.031.253.618.618,0,0,1,.137.271c-.041.044-.038.129.008.233a.6.6,0,0,0,.094.251.344.344,0,0,1,.091.188.216.216,0,0,1,.112.166.673.673,0,0,0,.052.274.763.763,0,0,1,.092.188,1.377,1.377,0,0,0,.136.25c0,.085,0,.127.049.168a.4.4,0,0,1,.048.168c.154.143.221.226.222.268a.616.616,0,0,1-.222-.268m-1.057-2.827-.008-.212a.356.356,0,0,1-.031-.254.485.485,0,0,0-.032-.3.583.583,0,0,0-.014-.382,1.752,1.752,0,0,1-.052-.274c.046.083.07.167.116.272a.586.586,0,0,1,.014.382l.015.424a.346.346,0,0,1,.054.316h0a.583.583,0,0,0-.014.192.963.963,0,0,1-.049-.168m-.81-11.242c-.018.086-.142.175-.351.289a1.228,1.228,0,0,0-.2.325c0,.043-.081.109-.268.222.11.1.112.166.008.212s-.123.132-.054.278A8.475,8.475,0,0,0-22.638-63.6a9.386,9.386,0,0,0-.849,1.75l-.178-.228a2.573,2.573,0,0,1,.151-.536A7.732,7.732,0,0,1-22.2-65.079a.339.339,0,0,0,.1-.216c0-.085.058-.172.2-.283l.534-.507c.138-.281.26-.433.324-.436a2.817,2.817,0,0,0,.534-.508,4.845,4.845,0,0,1,.969-.778,3.663,3.663,0,0,0,.846-.667c.353-.225.664-.428.913-.585.248-.179.434-.313.579-.424q.531-.274,1.185-.679a.756.756,0,0,1,.21-.05l-.205.177a3.129,3.129,0,0,1-.433.355,1.412,1.412,0,0,1-.544.211,2.2,2.2,0,0,1-.743.579,1.774,1.774,0,0,0-.744.579,14.915,14.915,0,0,0-1.752,1.443c.005.148-.118.28-.366.438a.283.283,0,0,0-.142.175m-1.049,16.785a2.806,2.806,0,0,1-.873-.669,4.951,4.951,0,0,0-.572-.552l-.11-.1c-.175-.142-.263-.224-.222-.268a1.075,1.075,0,0,0-.289-.372l-.236-.649a1.3,1.3,0,0,0-.338-.54,5.192,5.192,0,0,0-.151-.653,1.639,1.639,0,0,0-.139-.313,7.364,7.364,0,0,0-.178-.8l0-.106.11.1a1.183,1.183,0,0,0,.14.356.258.258,0,0,1-.011.3,1.255,1.255,0,0,1,.209.5,1.066,1.066,0,0,0,.251.5c.142.4.326.795.51,1.191a.367.367,0,0,1,.286.266c0,.064.025.105.088.1.043,0,.087.061.135.207.11.1.176.163.2.163s.045.062.091.167c.065.04.108.059.131.1.022.02.088.1.177.206a1.6,1.6,0,0,0,.33.328c.131.1.241.2.307.265a13.461,13.461,0,0,0,1.213.678c-.366-.136-.69-.272-1.055-.408m6.44-16.788-.2.325h0a.508.508,0,0,1-.395.227.829.829,0,0,0,.35-.31,1.136,1.136,0,0,1,.246-.242m-1.206,1.275-.167.07.1-.11a.306.306,0,0,1,.2-.22l.061-.066a.437.437,0,0,1-.2.326m-.323.457a1.188,1.188,0,0,0-.27.158h0c-.035.214-.094.342-.219.369a.31.31,0,0,0-.187.134,2.827,2.827,0,0,0-.244.306.344.344,0,0,0-.078.194.406.406,0,0,1-.1.28l-.2.22a.649.649,0,0,1-.1.216,1.684,1.684,0,0,0-.16.281,1.593,1.593,0,0,1-.1.195c-.041.044-.061.088-.1.131.009.254-.029.383-.091.428a1.273,1.273,0,0,1,.091-.428c-.086-.04-.049-.168.092-.385a.669.669,0,0,1,.142-.2,1.162,1.162,0,0,0,.141-.2.394.394,0,0,1,.075-.279,2.8,2.8,0,0,1,.244-.285.282.282,0,0,1,.056-.214l.2-.22c.2-.283.324-.436.366-.438a2.342,2.342,0,0,1,.242-.348.892.892,0,0,1,.29-.2.728.728,0,0,1-.1.279M-5.531-58.1a21.055,21.055,0,0,1-1.826,2.123,23.586,23.586,0,0,1-3.522,2.993,12.358,12.358,0,0,1-3.65,1.788,4.046,4.046,0,0,1-3.127-.205,2.927,2.927,0,0,1-1.055-.981,4.972,4.972,0,0,1-.6-1.4,10.164,10.164,0,0,1-.287-2.594,10.663,10.663,0,0,1,2.278-6.349,18.545,18.545,0,0,1,2.143-2.37A13.541,13.541,0,0,1-12.8-66.893a4.737,4.737,0,0,1,2.05-.838c.55-.062.819.332.8,1.117.071,1.98-1.6,3.691-2.939,4.936a18.165,18.165,0,0,1-5.523,3.537c-.232.087-.328,1.715-.269,2.148.449-.182,1.637-.761,1.835-.847.619-.269.987-.516,1.586-.827A14.862,14.862,0,0,0-11.665-60.2c1.966-1.82,3.946-4.029,3.793-6.8a4.089,4.089,0,0,0-1.284-2.628,5.5,5.5,0,0,0-2.873-1.382,8.314,8.314,0,0,0-3.853.288,11.4,11.4,0,0,0-4.055,2.609,13.56,13.56,0,0,0-2.846,3.5,17.136,17.136,0,0,0-1.889,4.1c-.124.4-.229.8-.32,1.2a15.4,15.4,0,0,0-.376,3.008c-.008.228,0,.456,0,.683a9.417,9.417,0,0,0,.664,3.134,6.6,6.6,0,0,0,2.289,2.846,7.822,7.822,0,0,0,4.122,1.294A13.2,13.2,0,0,0-10.3-50.5a23.7,23.7,0,0,0,5.72-5.3,6.561,6.561,0,0,1-.95-2.3" transform="translate(25.372 71.113)" fill="#fff"/>
    </g>
    <g id="Grupo_2670" data-name="Grupo 2670" transform="translate(522.871 150)">
      <path id="Trazado_755" data-name="Trazado 755" d="M-1.753-26.9c.24-.579.442-1.111.623-1.641s.345-1.016.536-1.44a10.4,10.4,0,0,1,.6-1.213.485.485,0,0,1,.054-.3,1.408,1.408,0,0,0,.111-.374l.247-.3a3.934,3.934,0,0,0-.408,1.022,4.89,4.89,0,0,1-.33,1.163,14.487,14.487,0,0,0-.471,1.455,13.019,13.019,0,0,0-.533,1.57l5-.845c.085-.245.172-.484.264-.714.185-.488.334-.908.484-1.328a10.48,10.48,0,0,1,.661-1.261,1.611,1.611,0,0,1,.616-.659c.181-.1.34-.013.431.255A4,4,0,0,1,6.2-30.074c-.044.409-.085.84-.146,1.294-.027.2-.064.392-.1.587l2.2-.274a20.721,20.721,0,0,0,.218-4.173,6.135,6.135,0,0,0-1.32-3.554,2.628,2.628,0,0,0-1.637-.794,3.113,3.113,0,0,0-1.606.355A5.646,5.646,0,0,0,2.3-35.5,11.922,11.922,0,0,0,.992-33.9,24.946,24.946,0,0,0-.9-30.465c-.516,1.112-1.02,2.345-1.513,3.684l.652-.11.005-.011" transform="translate(2.411 36.992)" fill="#fff"/>
    </g>
    <g id="Grupo_2671" data-name="Grupo 2671" transform="translate(518.752 195.591)">
      <path id="Trazado_756" data-name="Trazado 756" d="M0,0C0,.055,0,.112,0,.171L.009.163C.006.108,0,.054,0,0" fill="#fff"/>
    </g>
    <g id="Grupo_2672" data-name="Grupo 2672" transform="translate(477.623 195.206)">
      <path id="Trazado_757" data-name="Trazado 757" d="M0-.034v0c.006-.021,0-.018,0,0" transform="translate(0 0.046)" fill="#76dac5"/>
    </g>
    <g id="Grupo_2673" data-name="Grupo 2673" transform="translate(518.097 162.646)">
      <path id="Trazado_758" data-name="Trazado 758" d="M-59.368-85.649a.736.736,0,0,0-1.034-.125,9.3,9.3,0,0,1-3.073,1.655,9.739,9.739,0,0,1-3.382.492A9.047,9.047,0,0,1-72.82-85.88a11.339,11.339,0,0,1-3.2-5.538,18.012,18.012,0,0,1-.585-3.251c-.02-.544-.029-1.047-.041-1.463a29.964,29.964,0,0,1,.4-4.88c.131-.959.282-1.921.452-2.892,1.109-1.1,3.72-4.079,4.264-4.757a17.446,17.446,0,0,0,2.039-3.147,24.482,24.482,0,0,0,1.442-3.549c.251-.793.5-1.608.685-2.419l-2.425.481a34.925,34.925,0,0,1-1.391,3.94,23.3,23.3,0,0,1-3.785,5.525q.347-1.226.744-2.437c.7-2.132,1.346-4.389,2.02-6.53l-4.873.843q-.333.955-.713,2.031l-.527,2.164a4.988,4.988,0,0,0-.319,1.056,6.49,6.49,0,0,1-.319,1.055,2.285,2.285,0,0,1-.186,1.106,8.579,8.579,0,0,0-.356.91c-.017.257-.071.562-.121.908a6.565,6.565,0,0,1-.17.849,8.306,8.306,0,0,1-.254.857,2.209,2.209,0,0,0-.159.741,1.711,1.711,0,0,0-.109.608.969.969,0,0,1-.12.5l-.178.551-.017-.169a.919.919,0,0,1,.126-.439,8.4,8.4,0,0,1,.116-1.163,8.979,8.979,0,0,0,.144-1.528,4.179,4.179,0,0,0,.332-.929,3.965,3.965,0,0,0,.115-.971,3.064,3.064,0,0,1,.246-.942,1.833,1.833,0,0,0,.129-1.037c.107-.416.218-.789.315-1.1a8.4,8.4,0,0,0,.22-.982c.17-.422.324-.8.438-1.152a2.661,2.661,0,0,0,.125-1.079,12.876,12.876,0,0,0,.679-1.763l-.7.107c-.8,2.633-1.471,5.3-2.007,8-1.043,5.25-1.966,10.428-.619,15.723a19.913,19.913,0,0,0,.956,2.961A15.328,15.328,0,0,0-76-83.694a12.03,12.03,0,0,0,9.284,2.738,12.47,12.47,0,0,0,4.055-1.221,10.621,10.621,0,0,0,3.281-2.549.736.736,0,0,0,.011-.923" transform="translate(81.636 117.775)" fill="#fff"/>
    </g>
    <g id="Grupo_2674" data-name="Grupo 2674" transform="translate(482.297 158.612)">
      <path id="Trazado_759" data-name="Trazado 759" d="M-162.052-.02c-5.572.292-11.082.958-16.6,1.76-5.547.807-11.072,1.715-16.6,2.658-1.333.227-2.667.452-4,.694-5.481.994-10.962,1.984-16.388,3.251-1.367.319-2.73.655-4.092,1-1.044.264-3.157.592-3.107,2.05.028.82.868.894,1.511.833.938-.089,1.882-.333,2.805-.515q4.165-.822,8.334-1.618,8.223-1.587,16.469-3.056c3.556-.636,7.116-1.249,10.666-1.919q3.3-.6,6.59-1.206a109.58,109.58,0,0,1,13.69-1.749c3.264-.182,2.427-2.335.717-2.184" transform="translate(222.836 0.028)" fill="#fff"/>
    </g>
    <g id="Grupo_2675" data-name="Grupo 2675" transform="translate(401 168.219)">
      <path id="Trazado_760" data-name="Trazado 760" d="M-30.124-86.513a.163.163,0,0,0-.062.025.163.163,0,0,1,.062-.025M-4.64-81.384A16.434,16.434,0,0,0-3.2-85a14.776,14.776,0,0,0,.4-2.649,11.12,11.12,0,0,0-.005-1.632A6.449,6.449,0,0,0-3.371-91.6a3.052,3.052,0,0,0-1.287-1.36c-.042-.022-.085-.044-.128-.064a12.027,12.027,0,0,0-4.632-.9,46.938,46.938,0,0,1-6.554-.594,13.217,13.217,0,0,1-3.608-1.068A2.936,2.936,0,0,1-21.1-97.016a4.308,4.308,0,0,1-.308-1.605,7.363,7.363,0,0,1,.72-3.082,18.609,18.609,0,0,1,2.01-3.389,26.112,26.112,0,0,1,6.562-6.24,23.136,23.136,0,0,1,3.923-2.094,11.329,11.329,0,0,1,3.931-.934,9.878,9.878,0,0,1,1.394.042,5.167,5.167,0,0,1,1.671.426,3.391,3.391,0,0,1,1.352,1.078A3.318,3.318,0,0,1,.719-110.8a5.253,5.253,0,0,1-.755,2.514,8.108,8.108,0,0,1-1.7,2.136A9.262,9.262,0,0,1-3.681-105c-.222.106-1.727.649-1.2,1.047a.607.607,0,0,0,.349.089,7.887,7.887,0,0,0,6.812-3.572,6.728,6.728,0,0,0,.537-1.092,5.984,5.984,0,0,0,.246-3.582,7.759,7.759,0,0,0-1.8-3.266,10.121,10.121,0,0,0-3.292-2.459,11.422,11.422,0,0,0-4.265-1.113,10.9,10.9,0,0,0-4.762.774,28.9,28.9,0,0,0-7.491,4.124,27.849,27.849,0,0,0-5.074,5.012,19.462,19.462,0,0,0-2.858,5.045,10.994,10.994,0,0,0-.794,4.309,8.139,8.139,0,0,0,.849,3.218,6.351,6.351,0,0,0,2.432,2.532,13.264,13.264,0,0,0,4.311,1.574,26.418,26.418,0,0,0,6.516.323c.777-.047,1.558-.052,2.318-.035a13.448,13.448,0,0,1,2.058.191,4.888,4.888,0,0,1,1.616.556,2.31,2.31,0,0,1,.993,1.079,3.521,3.521,0,0,1,.251,1.57,4.843,4.843,0,0,1-.434,1.649,11.241,11.241,0,0,1-1.631,2.375,23.4,23.4,0,0,1-3.059,3.1,3.768,3.768,0,0,0-.372.368,40.528,40.528,0,0,1-14.834,8.378c-.125.029-10.8,2.826-11.642-3.112-.8-5.671,6.2-8.757,6.879-9.044a18.777,18.777,0,0,1,4.132-1.029,51.77,51.77,0,0,1,5.415-.454c1.831-.069,3.643-.094,5.48-.058,1.817.038,3.656.095,5.513.109.9.007,1.8.012,2.694,0a4.442,4.442,0,0,0,.846-3.051q-.485.088-.974.152c-.9.118-1.8.235-2.7.332-3.678.4-7.374.591-11.054.974-3.525.366-7.311.756-10.623,2.068l-.13.051-.128.05-.04.016c-4.5,1.805-10.238,5.75-8.524,13.917l.213.725c1.042,2.932,4.877,7.715,16.337,4.681C-16.6-68.577-9.011-73.465-4.955-80.8q.16-.29.315-.585" transform="translate(41.423 118.963)" fill="#fff"/>
    </g>
    <g id="Grupo_2676" data-name="Grupo 2676" transform="translate(414.616 204.934)">
      <path id="Trazado_761" data-name="Trazado 761" d="M0-34.2a4.715,4.715,0,0,0,1.116-.156,7.69,7.69,0,0,1,1.218-.223,20.272,20.272,0,0,1,2.915-1.082,32.666,32.666,0,0,0,4.917-2.073c.815-.43,1.664-.961,2.514-1.492.408-.232.781-.464,1.189-.7a8.446,8.446,0,0,1,1.189-.7,1.64,1.64,0,0,1,.511-.433.8.8,0,0,0,.444-.434l1.055-.762.511-.433c0-.068.069-.1.171-.167a.705.705,0,0,0,.274-.335l.171-.167c.068-.067.1-.1.17-.1a1.9,1.9,0,0,1,.172-.268l.171-.167.273-.267.1-.168a3.11,3.11,0,0,0,.343-.5,1.373,1.373,0,0,1,.307-.334c.136-.1.273-.233.409-.333l.345-.671a2.168,2.168,0,0,0,.273-.3.471.471,0,0,0,.1-.3.332.332,0,0,0,.1-.269l-.171.167a1.162,1.162,0,0,1-.277.6l-.513.669-.273.267a1.633,1.633,0,0,0-.343.5l-.171.167a.332.332,0,0,0-.1.269l-.614.6c-.068.067-.1.1-.17.1a2.2,2.2,0,0,1-.407.2.59.59,0,0,1-.2.032.948.948,0,0,1-.037.27.9.9,0,0,1-.206.336l-.611.263a.6.6,0,0,1-.41.434.6.6,0,0,0-.41.434,2.283,2.283,0,0,0-.747.431c-.2.167-.408.3-.579.432-.714.465-1.462.963-2.278,1.528a5.116,5.116,0,0,1-.611.3,2.557,2.557,0,0,0-.611.3.911.911,0,0,1-.579.466,3.048,3.048,0,0,0-.747.363c-.882.4-1.73.791-2.612,1.22a23.533,23.533,0,0,1-2.915,1.149,15.985,15.985,0,0,1-2.2.617,3.4,3.4,0,0,1-1.085.461C.711-34.4.338-34.3,0-34.268" transform="translate(0 47.032)" fill="#76dac5"/>
    </g>
    <g id="Grupo_2677" data-name="Grupo 2677" transform="translate(423.811 207.333)">
      <path id="Trazado_762" data-name="Trazado 762" d="M-16.861-5.5a4.8,4.8,0,0,1-.887.8c-.306.2-.578.4-.885.631a9.38,9.38,0,0,0-1.054.664,5.64,5.64,0,0,1-.952.6c-.237.1-.509.265-.883.463-.34.2-.645.364-.884.531l-.781.43h.1c.3-.1.576-.23.881-.328a2.168,2.168,0,0,1,.748-.465c.305-.132.645-.331,1.019-.529.238-.166.477-.366.749-.532a7.355,7.355,0,0,1,1.256-.7c.477-.4,1.055-.8,1.736-1.263.1-.1.272-.233.443-.366a1.065,1.065,0,0,0,.342-.367.643.643,0,0,0,.442-.3,1.223,1.223,0,0,1,.172-.3,5.673,5.673,0,0,1,.715-.6.716.716,0,0,0,.343-.435l-.1.168a.934.934,0,0,1-.272.166,4.077,4.077,0,0,0-.408.265.368.368,0,0,1-.406.063,1.547,1.547,0,0,1-.175.5l-.341.334a2.342,2.342,0,0,0-.511.433.538.538,0,0,1-.408.131Z" transform="translate(23.185 7.567)" fill="#76dac5"/>
    </g>
    <g id="Grupo_2678" data-name="Grupo 2678" transform="translate(416.786 170.837)">
      <path id="Trazado_763" data-name="Trazado 763" d="M-5.14-32.8a1,1,0,0,1,.178-.413,1.717,1.717,0,0,0,.226-.411,4.311,4.311,0,0,0,.359-.489c.087-.164.174-.308.26-.452.376-.51.77-1.061,1.2-1.653l.306-.366a4.79,4.79,0,0,0,.358-.469,2,2,0,0,1,.309-.45,2.936,2.936,0,0,0,.357-.448c.441-.507.9-1.035,1.372-1.541A17.8,17.8,0,0,1,1.4-41.023a10.121,10.121,0,0,1,1.284-.957,7.228,7.228,0,0,1,.655-.6c.2-.16.4-.32.6-.459a5.078,5.078,0,0,1,1.055-.882c.348-.217.648-.415.881-.574a5.741,5.741,0,0,1,.55-.4.268.268,0,0,0,.17-.2l-.168.161a.616.616,0,0,0-.233.159,1.256,1.256,0,0,1-.316.2,6.448,6.448,0,0,1-.9.637,6.681,6.681,0,0,0-1.118.838,4.229,4.229,0,0,0-.615.4c-.217.159-.434.34-.667.5-.252.242-.8.7-1.659,1.426a24.425,24.425,0,0,0-2.712,2.707,13.833,13.833,0,0,0-1.313,1.711,8.945,8.945,0,0,1-.6.858c-.222.285-.411.571-.6.8a2.711,2.711,0,0,1-.26.451,2.464,2.464,0,0,0-.278.493L-5.327-33l-.31.471a.492.492,0,0,1-.055.166l-.06.312c-.05.04-.1.08-.1.122a.885.885,0,0,1-.072.186,2.664,2.664,0,0,0-.091.269,1.258,1.258,0,0,1-.088.164.463.463,0,0,1-.073.228.391.391,0,0,0-.072.186,1.713,1.713,0,0,1-.178.413.992.992,0,0,1-.078.354,3,3,0,0,0-.127.352l-.154.644a.808.808,0,0,0-.108.29.9.9,0,0,1-.074.228q-.059.281-.012.314l-.087.164a3.419,3.419,0,0,1,.017.42.907.907,0,0,0,.016-.419l.145-.414a2.234,2.234,0,0,1,.15-.54l.188-.685a.844.844,0,0,0,.091-.27c.038-.145.059-.27.1-.374a1.041,1.041,0,0,0,.073-.207,1.042,1.042,0,0,1,.073-.207.4.4,0,0,0,.136-.163,2.231,2.231,0,0,0,.091-.269.5.5,0,0,1,.055-.166l.089-.206.254-.3a.9.9,0,0,0,.073-.228.559.559,0,0,1,.106-.226Z" transform="translate(7.068 45.103)" fill="#76dac5"/>
    </g>
    <g id="Grupo_2679" data-name="Grupo 2679" transform="translate(440.391 185.473)">
      <path id="Trazado_764" data-name="Trazado 764" d="M-62.055-36.247a7.6,7.6,0,0,1-.1.8c-.023.215-.044.451-.065.687a3.844,3.844,0,0,0,0,.682h0a2.679,2.679,0,0,0-.1.564,1.653,1.653,0,0,1-.1.542,2.622,2.622,0,0,0,.126.9c.008.084.011.126.058.165l.01.106-.052-.1-.121-.159a.762.762,0,0,1-.1-.182.207.207,0,0,1,0-.192l-.05-.549c-.044-.017-.052-.1-.04-.209a1.636,1.636,0,0,0,.013-.321.428.428,0,0,1-.046-.272,1.03,1.03,0,0,0,.013-.321,4.047,4.047,0,0,1,0-.661q.029-.386.063-.709a3.4,3.4,0,0,1,.1-.776c.044-.217.128-.459.211-.722a4.145,4.145,0,0,0,.156-.845,5.235,5.235,0,0,1,.157-.845,2.023,2.023,0,0,1,.1-.478,2.293,2.293,0,0,1,.153-.419,1.231,1.231,0,0,1-.026.407,1.342,1.342,0,0,0,.047.507,5.782,5.782,0,0,0-.312,1.712,6.407,6.407,0,0,0-.107.691M-49.75-48.6a1.647,1.647,0,0,0,.042-.478.568.568,0,0,0-.14-.373,1.3,1.3,0,0,0-.6-.277,3.65,3.65,0,0,0-.724-.107,3.637,3.637,0,0,0-1.133.127,1.011,1.011,0,0,0-.777.772,7.47,7.47,0,0,0-.072,1.3q-.03.675-.08,1.348-.1,1.346-.281,2.684a44.932,44.932,0,0,1-1.042,5.3l-.048.183a20.487,20.487,0,0,1-2.854,6.716c-.546.775-1.408,1.6-2.345,1.366-.828-.2-1.255-1.142-1.46-1.975a15.7,15.7,0,0,1,.278-7.161c.551-2.351,1.363-4.641,1.871-6.988a3.165,3.165,0,0,0,.038-1.665,2.365,2.365,0,0,0-1.985-1.436,3.978,3.978,0,0,0-2.451.459,5.4,5.4,0,0,0-1.325,1.08,7.9,7.9,0,0,0-1.09,2.741q-1.094,4.094-2.516,8.091a61.415,61.415,0,0,1-2.452,6,6.434,6.434,0,0,1-1.829,2.575,1.362,1.362,0,0,1-.72.279c-.574.01-.913-.661-1.05-1.224a12.661,12.661,0,0,1-.049-4.469A64.458,64.458,0,0,1-73-41.689c.343-1.355.765-2.688,1.11-4.039a1.88,1.88,0,0,0-.908-2.2,3.351,3.351,0,0,0-3.15-.2,3.193,3.193,0,0,0-1.266,1.053,6.672,6.672,0,0,0-.516.981,6.255,6.255,0,0,1-.627.992,14.243,14.243,0,0,1-1.834,2.028,20.179,20.179,0,0,1-4.047,3.014q-.539.307-1.093.584a10.833,10.833,0,0,1,.129,3.853,25.842,25.842,0,0,0,2.686-1,27.077,27.077,0,0,0,2.768-1.395c-.135.846-.237,1.7-.3,2.552a17.659,17.659,0,0,0,.185,4.094,6.635,6.635,0,0,0,2.653,4.761c2.145,1.316,5.062.386,6.793-1.413s2.546-4.28,3.308-6.651c-.044,2.537.724,5.322,2.851,6.681a5.956,5.956,0,0,0,5.661.182,9.947,9.947,0,0,0,4.186-4.049A28.55,28.55,0,0,0-52.1-37.291a4.334,4.334,0,0,0,3.2.872c-.027-.539-.049-1.236-.037-1.908a2.15,2.15,0,0,1-1.328-.581,2.789,2.789,0,0,1-.5-2.191A54.717,54.717,0,0,1-49.75-48.6" transform="translate(85.331 49.842)" fill="#fff"/>
    </g>
    <g id="Grupo_2680" data-name="Grupo 2680" transform="translate(448.891 190.003)">
      <path id="Trazado_765" data-name="Trazado 765" d="M-1.681-32.1a10.357,10.357,0,0,1-.106-2.123A10.027,10.027,0,0,1-1.5-36.04c-.15-.082-.187-.184-.1-.286s.053-.157-.122-.2c.125-.2.154-.318.131-.354a1.113,1.113,0,0,1,.04-.422c.143-.212.215-.38.188-.464a.237.237,0,0,1,.038-.222c.158-.27.207-.475.118-.619a14.54,14.54,0,0,1,.944-2.318,2.282,2.282,0,0,1,.414-.949,2.366,2.366,0,0,0,.414-.95A1.951,1.951,0,0,0,.968-43.3a1.921,1.921,0,0,0,.217-.58l.11-.267a.428.428,0,0,0-.166.176c-.272.49-.541.9-.786,1.277-.089.179-.193.416-.34.705s-.343.658-.576,1.049A4.091,4.091,0,0,1-1.04-39.83a5.8,5.8,0,0,0-.52,1.263,2.487,2.487,0,0,1-.259.755c-.072.044-.1.237-.064.586l-.259.755a.512.512,0,0,0-.062.386.327.327,0,0,1,.013.265,8.247,8.247,0,0,0,.042,3.033A2.779,2.779,0,0,0-2-32.179Z" transform="translate(2.311 44.143)" fill="#76dac5"/>
    </g>
    <g id="Grupo_2681" data-name="Grupo 2681" transform="translate(452.516 212.029)">
      <path id="Trazado_766" data-name="Trazado 766" d="M-10.8-41.146c-.012.118-.022.244-.028.38s-.017.262-.028.38l-.069.705-.108.024a.846.846,0,0,1-.011-.429,1.377,1.377,0,0,0,.055-.386,2.527,2.527,0,0,0,.081-.65,12.09,12.09,0,0,1,.368-1.519q.186-.559.37-1a5.351,5.351,0,0,1,.392-.777,9.806,9.806,0,0,1,.831-1.852A12.364,12.364,0,0,1-8.235-47.9,8.482,8.482,0,0,1-7.163-49.43a11.573,11.573,0,0,1,.908-1.381q.5-.658.849-1.137a2.18,2.18,0,0,1,.534-.522,2.216,2.216,0,0,0,.409-.321.406.406,0,0,1,.2-.246,2.438,2.438,0,0,0,.278-.148l-.179.212a.356.356,0,0,0-.179.212l-.985.909a1.322,1.322,0,0,1-.306.528,4.391,4.391,0,0,0-.414.552,5.152,5.152,0,0,0-.56.786q-.2.362-.411.7-.512.747-.958,1.536a9.35,9.35,0,0,0-.748,1.719,4.078,4.078,0,0,0-.488.856l-.368.887q-.113.255-.345.738a6.246,6.246,0,0,0-.408,1.212,4.088,4.088,0,0,1-.468,1.2m2.028-9.42a1.879,1.879,0,0,0,.154-.322.538.538,0,0,1,.154-.322q.137-.145.37-.37a2.191,2.191,0,0,1,.244-.428c.088-.115.191-.244.31-.385a3.862,3.862,0,0,1,.384-.431c.109-.1.21-.2.3-.3a1.142,1.142,0,0,1,.3-.325,2.192,2.192,0,0,0,.307-.27,2.668,2.668,0,0,1,.233-.224.633.633,0,0,0,.137-.146l.054-.012-.041.067c.008.036-.018.09-.077.161a1.462,1.462,0,0,1-.185.185.938.938,0,0,0-.322.33.632.632,0,0,1-.334.276,2.886,2.886,0,0,1-.283.379q-.159.179-.337.391-.3.412-.62.77a3.054,3.054,0,0,0-.471.68,1.6,1.6,0,0,1-.4.491Zm4.937-2.71a.636.636,0,0,1,.137-.146l.108-.024a.413.413,0,0,0,.149-.091l.191-.157.162-.036-.1.079a.535.535,0,0,0-.245.169,2.244,2.244,0,0,0-.245.17.882.882,0,0,1-.257.115.158.158,0,0,0,.1-.079m.8,13.619A9.245,9.245,0,0,1-4-37.774a11.888,11.888,0,0,1-2.877,3.2,2.14,2.14,0,0,1-2.047.456,2.217,2.217,0,0,1-1.061-1.718,9.778,9.778,0,0,1,0-3.278A20.494,20.494,0,0,1-8.816-43.4a23.711,23.711,0,0,1,2.455-4.715,15.843,15.843,0,0,1,2.238-2.769,10.282,10.282,0,0,1,2.846-2.071A4.449,4.449,0,0,1,1.6-53.366a3.6,3.6,0,0,1,2.33,2.212c.016.073.1.121.258.144a.8.8,0,0,0,.464-.075.666.666,0,0,0,.337-.391,1.4,1.4,0,0,0,0-.775,4.987,4.987,0,0,0-1.916-2.764A7.777,7.777,0,0,0-.45-56.474a9.609,9.609,0,0,0-4.3.355,10.109,10.109,0,0,0-4.224,2.609,19.734,19.734,0,0,0-3.783,5.1,19.456,19.456,0,0,0-1.794,5.143,15.45,15.45,0,0,0-.209,4.646,11.078,11.078,0,0,0,.973,3.607,5.74,5.74,0,0,0,1.658,1.988A5.648,5.648,0,0,0-9.557-31.88a6.112,6.112,0,0,0,3.021-.271A6.785,6.785,0,0,0-3.5-34.495a12.956,12.956,0,0,0,1.768-2.723c.142-.306.265-.586.379-.855a11.36,11.36,0,0,1-1.1-3.253c-.179.558-.37,1.115-.583,1.669" transform="translate(14.853 56.579)" fill="#fff"/>
    </g>
    <g id="Grupo_2682" data-name="Grupo 2682" transform="translate(524.43 209.167)">
      <path id="Trazado_767" data-name="Trazado 767" d="M-16.443-29.08q-.055.011-.271-.376a4.352,4.352,0,0,1-.342-1.448,12.855,12.855,0,0,1-.076-2.1q.048-1.039.281-2.715a5.451,5.451,0,0,1,.5-2.015,14.209,14.209,0,0,1-.357,2.472,25.538,25.538,0,0,0-.026,5.153,5.816,5.816,0,0,0,.4,1.008Zm10.964-7.4a1.472,1.472,0,0,0-.531-.41,1.069,1.069,0,0,0-.661-.07.656.656,0,0,0-.492.5q-.8,1.93-1.543,3.735A27.253,27.253,0,0,1-10.22-29.57,7.383,7.383,0,0,1-11.866-27.5a2.03,2.03,0,0,1-1.944.411,2.826,2.826,0,0,1-2.02-1.69,7.556,7.556,0,0,1-.542-2.9,16.123,16.123,0,0,1,.3-3.177q.308-1.575.568-2.543a1.69,1.69,0,0,0-.336-1.564,2.942,2.942,0,0,0-1.435-.861,5.075,5.075,0,0,0-1.992-.122,4.06,4.06,0,0,0-1.89.687,3.3,3.3,0,0,0-1.017,1.83,14.061,14.061,0,0,0-.422,2.571l0,.021a20.563,20.563,0,0,0,.3,4.28c.437,2.482,1.306,4.753,3.688,5.925a7.386,7.386,0,0,0,2.361.708,6.783,6.783,0,0,0,2.474-.144,7.7,7.7,0,0,0,2.534-.985,8.251,8.251,0,0,0,2.23-2.1,16.063,16.063,0,0,0,1.948-3.529,45.056,45.056,0,0,0,1.753-5.235.679.679,0,0,0-.168-.568" transform="translate(22.611 39.987)" fill="#fff"/>
    </g>
    <g id="Grupo_2683" data-name="Grupo 2683" transform="translate(479.757 227.834)">
      <path id="Trazado_768" data-name="Trazado 768" d="M-.191-4.851l0-.006c-.037-.6-.058-1.208-.071-1.813l-.005.011c.009.618.032,1.229.072,1.809" transform="translate(0.263 6.67)" fill="#fff"/>
    </g>
    <g id="Grupo_2684" data-name="Grupo 2684" transform="translate(465.917 217.666)">
      <path id="Trazado_769" data-name="Trazado 769" d="M-16.867-28.919q-.054.012-.28-.369a4.336,4.336,0,0,1-.377-1.439,12.836,12.836,0,0,1-.128-2.1q.023-1.04.213-2.721a5.449,5.449,0,0,1,.453-2.027,14.188,14.188,0,0,1-.3,2.48,25.531,25.531,0,0,0,.1,5.152,5.81,5.81,0,0,0,.42,1ZM-11.1-27.4a3.915,3.915,0,0,1-3.353.332c-1.861-.636-2.352-2.675-2.4-4.443a16.147,16.147,0,0,1,.224-3.183q.269-1.582.5-2.556a1.689,1.689,0,0,0-.375-1.555,2.942,2.942,0,0,0-1.456-.826,5.081,5.081,0,0,0-1.995-.073,4.057,4.057,0,0,0-1.872.733,3.3,3.3,0,0,0-.972,1.855c-.089.382-.159.763-.216,1.142l0,0s-.959,6.7,1.559,9.474A7.345,7.345,0,0,0-14.2-24.241a7.68,7.68,0,0,0,2.509-1.047,7.448,7.448,0,0,0,1.551-1.367c-.09-.426-.167-.887-.229-1.378a3.628,3.628,0,0,1-.733.635" transform="translate(23.194 39.766)" fill="#fff"/>
    </g>
    <g id="Grupo_2685" data-name="Grupo 2685" transform="translate(510.875 203.42)">
      <path id="Trazado_770" data-name="Trazado 770" d="M-31.994-7.719a.532.532,0,0,0-.249.164,2.2,2.2,0,0,0-.249.163.888.888,0,0,1-.26.109.159.159,0,0,0,.1-.077.636.636,0,0,1,.141-.142l.108-.021a.415.415,0,0,0,.152-.087l.2-.152.162-.032Zm-1,.654a.356.356,0,0,0-.184.208l-1.007.885a1.319,1.319,0,0,1-.319.52,4.416,4.416,0,0,0-.428.542,5.138,5.138,0,0,0-.579.772q-.212.356-.428.685-.53.734-1,1.511a9.354,9.354,0,0,0-.79,1.7A4.068,4.068,0,0,0-38.229.6l-.39.878q-.119.252-.363.729a6.229,6.229,0,0,0-.438,1.2,4.094,4.094,0,0,1-.5,1.185c-.015.117-.028.244-.038.379s-.024.262-.038.379l-.086.7-.109.022a.849.849,0,0,1,0-.429,1.36,1.36,0,0,0,.065-.385,2.524,2.524,0,0,0,.1-.648,12.028,12.028,0,0,1,.406-1.51q.2-.554.395-.993a5.354,5.354,0,0,1,.411-.767,9.8,9.8,0,0,1,.877-1.831,12.367,12.367,0,0,1,.752-1.607A8.479,8.479,0,0,1-36.075-3.6a11.543,11.543,0,0,1,.942-1.358q.519-.645.877-1.116a2.18,2.18,0,0,1,.546-.508,2.186,2.186,0,0,0,.417-.311.407.407,0,0,1,.206-.241,2.438,2.438,0,0,0,.282-.141Zm-4.667,2.292a1.85,1.85,0,0,0,.163-.318.538.538,0,0,1,.162-.318c.094-.095.22-.215.379-.361a2.175,2.175,0,0,1,.254-.422c.091-.112.2-.239.32-.377a3.832,3.832,0,0,1,.4-.421c.111-.1.215-.194.308-.29a1.142,1.142,0,0,1,.3-.317,2.137,2.137,0,0,0,.314-.262,2.767,2.767,0,0,1,.238-.218.632.632,0,0,0,.141-.142l.054-.011-.043.066c.007.037-.02.089-.081.159a1.454,1.454,0,0,1-.19.18.94.94,0,0,0-.33.323.632.632,0,0,1-.341.267,2.865,2.865,0,0,1-.292.373q-.163.175-.347.382-.314.405-.639.755a3.056,3.056,0,0,0-.487.668,1.614,1.614,0,0,1-.411.481Zm13.8-1.344a4.986,4.986,0,0,0-1.847-2.811,7.778,7.778,0,0,0-3.482-1.545,9.609,9.609,0,0,0-4.31.248,10.1,10.1,0,0,0-4.287,2.5,19.733,19.733,0,0,0-3.908,5,19.454,19.454,0,0,0-1.921,5.1,16,16,0,0,0-.366,3.975l0,0a1.229,1.229,0,0,0,.024.381c.007.095.011.191.02.285A11.636,11.636,0,0,0-43.2,10.3l0,.01c.02.045.044.088.065.133.028.066.056.134.086.2a4.952,4.952,0,0,0,.488.84l.011.018v0a6.41,6.41,0,0,0,1.109,1.172A5.646,5.646,0,0,0-38.9,13.888a6.112,6.112,0,0,0,3.027-.2,6.785,6.785,0,0,0,3.1-2.268,12.973,12.973,0,0,0,1.835-2.678c.173-.349.321-.667.454-.968a11.851,11.851,0,0,1-1.022-3.312c-.207.606-.43,1.209-.678,1.809A9.249,9.249,0,0,1-33.2,8.133a11.879,11.879,0,0,1-2.955,3.127,2.14,2.14,0,0,1-2.058.405,2.217,2.217,0,0,1-1.018-1.744,9.771,9.771,0,0,1,.086-3.277,20.493,20.493,0,0,1,1.271-4.254,23.713,23.713,0,0,1,2.571-4.653A15.834,15.834,0,0,1-33-4.975a10.277,10.277,0,0,1,2.9-2,4.451,4.451,0,0,1,2.886-.34,3.6,3.6,0,0,1,2.275,2.269c.014.074.1.124.254.15a.8.8,0,0,0,.466-.063.667.667,0,0,0,.346-.383,1.392,1.392,0,0,0,.016-.775" transform="translate(43.994 10.614)" fill="#fff"/>
    </g>
    <g id="Grupo_2686" data-name="Grupo 2686" transform="translate(479.751 205.515)">
      <path id="Trazado_771" data-name="Trazado 771" d="M-80.39-59a4.383,4.383,0,0,1-4.668,1.323c-1.412-.455-1.831-1.824-1.745-3.194.164-2.629,1.163-5.087,1.891-7.589,1.5-5.164,2.906-10.967-.418-12.33-3.573-1.465-8.008,1.954-9.769,7.268a1.83,1.83,0,0,0-.178-1.022A3.126,3.126,0,0,0-98.2-76.366,5.338,5.338,0,0,0-101.24-75a12.623,12.623,0,0,0-1.46,1.42c-.267.3-.523.612-.77.93-.2.26-.314.374-.484.572,0,0,.077-.432.077-.433.478-2.96-4.007-3.447-4.921-.911q-.079.22-.148.447a32.27,32.27,0,0,0-1.041,4.913q-.213,1.634-.349,3.278c-.056.742-.206,2.947-.206,5.236,0,.248.006.5.011.743.013.6.034,1.209.071,1.813q.041.67.1,1.34a2.228,2.228,0,0,0,.761,1.5.9.9,0,0,1,.145.107c.02.014.039.03.06.044a1.6,1.6,0,0,0,1.177.235,2.128,2.128,0,0,0,.884-.407,2.73,2.73,0,0,0,1.011-2.471c-.192-1.808-.139-6.057,3.226-11.578,4.519-7.414,2.936,1.449,2.936,1.449S-101.3-55.7-97.921-54.913a1.607,1.607,0,0,0,2.162-1.115,6.64,6.64,0,0,0-.093-2.626c-.689-4.486,1.185-10.112,3.376-13.994.645-1.142,1.951-3.734,3.7-2.916,1.072.5.257,2.558.257,2.558-1.048,3.625-2.106,8.23-1.372,12.188.45,2.424,1.671,4.849,4.31,5.394A6.137,6.137,0,0,0-80-57.507a9.193,9.193,0,0,0,1.5-2.3,6.266,6.266,0,0,1-.751-.96A7.6,7.6,0,0,1-80.39-59" transform="translate(110.543 81.129)" fill="#fff"/>
    </g>
    <g id="Grupo_2687" data-name="Grupo 2687" transform="translate(421.992 213.008)">
      <path id="Trazado_772" data-name="Trazado 772" d="M-17.462-25.081c-.06.2-.117.422-.169.685a4.81,4.81,0,0,0-.079.887l-.226.906a9.117,9.117,0,0,0-.221.948,6.522,6.522,0,0,1-.157.94,7.73,7.73,0,0,1-.268.911,3.12,3.12,0,0,0-.245.759,1.688,1.688,0,0,1-.293.722q-.132.723-.241,1.122a1.331,1.331,0,0,0-.06.2.445.445,0,0,1-.068.137l-.1.076.141-.4c0-.15.025-.3.043-.5.02-.174.057-.392.092-.611a3.789,3.789,0,0,0,.266-.761,5.711,5.711,0,0,0,.153-.81,5.437,5.437,0,0,1,.192-.837,8.245,8.245,0,0,0,.291-1.064c.052-.263.1-.568.145-.874a3.409,3.409,0,0,1,.25-.887,8.509,8.509,0,0,1,.145-.874,7.207,7.207,0,0,0,.161-.748l.022-.324a.4.4,0,0,1,.07-.287.838.838,0,0,0,.028-.282.208.208,0,0,1,.041-.176,3.7,3.7,0,0,1,.083,1.144M22.314-4.625c-.151-.071-.795.193-.953.227q-1.251.268-2.524.42a22.274,22.274,0,0,1-7.481-.229A11.063,11.063,0,0,1,4.425-8.6,10.473,10.473,0,0,1,2.577-14.98a22.628,22.628,0,0,1,1.2-5.808c1.749-5.323,3.233-11.891-.327-13.377-3.827-1.6-8.388,2.955-10.421,8.429A1.831,1.831,0,0,0-7.136-26.8a3.383,3.383,0,0,0-3.117-1.956,5.91,5.91,0,0,0-3.317,1.347,13.441,13.441,0,0,0-1.612,1.441q-.444.459-.855.948a8.278,8.278,0,0,0-.9,1.128l.161-.839c.588-3.06-4.208-3.8-5.259-1.186q-.091.225-.17.46a31.278,31.278,0,0,0-.989,5.053,64.9,64.9,0,0,0-.754,7.094A47.038,47.038,0,0,0-23.9-7.539a2.243,2.243,0,0,0,1,1.733,1.783,1.783,0,0,0,1.267.27,2.358,2.358,0,0,0,.966-.4A2.789,2.789,0,0,0-19.507-8.48c-.164-1.88,0-6.285,3.77-11.94,5.065-7.591,3.138,1.567,3.138,1.567S-14.1-7.383-10.471-6.5A1.82,1.82,0,0,0-8-8.16,8.219,8.219,0,0,0-8.085-9.93,24.09,24.09,0,0,1-6.235-21.6a32.715,32.715,0,0,1,1.79-3.659,15.5,15.5,0,0,1,2-3.207s.9-1.274,2.046-.731.454,2.375.454,2.375S-3.983-15.5-.349-9.146s12.271,7.312,18.6,6.44c6.3-.869,4.069-1.917,4.068-1.918" transform="translate(24.012 34.489)" fill="#fff"/>
    </g>
    <path id="Trazado_2657" data-name="Trazado 2657" d="M0-353.141H144.3v96.327H0Z" transform="translate(401 503.141)" fill="none"/>
  </g>
</svg>
